<?xml version="1.0" standalone="no"?>
<!DOCTYPE svg PUBLIC "-//W3C//DTD SVG 20010904//EN"
 "http://www.w3.org/TR/2001/REC-SVG-20010904/DTD/svg10.dtd">
<svg version="1.0" xmlns="http://www.w3.org/2000/svg"
 width="2000.000000pt" height="2000.000000pt" viewBox="0 0 2000.000000 2000.000000"
 preserveAspectRatio="xMidYMid meet">
<metadata>
Created by potrace 1.11, written by Peter Selinger 2001-2013
</metadata>
<g transform="translate(0.000000,2000.000000) scale(0.100000,-0.100000)"
fill="#000000" stroke="none">
<path d="M13884 19302 c6 -11 0 -12 -29 -8 -27 5 -34 3 -29 -6 5 -9 3 -9 -9 1
-12 9 -17 10 -17 2 0 -8 -6 -9 -18 -2 -11 6 -24 6 -35 0 -9 -6 -17 -7 -17 -3
0 3 -8 0 -17 -7 -11 -10 -14 -10 -9 -1 8 14 -3 16 -24 2 -9 -6 -20 -5 -29 3
-12 10 -13 9 -6 -2 6 -11 4 -13 -8 -8 -10 3 -17 3 -17 -1 0 -4 -15 -8 -32 -9
-71 -5 -78 -6 -74 -12 2 -3 -10 -6 -27 -5 -18 0 -38 -5 -46 -10 -12 -9 -13 -8
-7 4 4 8 0 6 -8 -4 -12 -15 -16 -16 -16 -5 0 12 -2 12 -9 0 -5 -8 -24 -16 -43
-18 -55 -5 -58 -6 -58 -17 0 -6 -5 -4 -10 4 -8 12 -10 12 -10 1 0 -8 -3 -12
-6 -8 -4 3 -19 0 -34 -8 -15 -8 -30 -11 -34 -8 -3 4 -6 1 -6 -4 0 -6 -8 -10
-17 -8 -10 1 -24 -2 -30 -8 -7 -5 -13 -6 -13 -1 0 5 -4 4 -8 -3 -4 -7 -23 -15
-42 -18 -19 -3 -37 -10 -40 -15 -4 -6 -18 -11 -33 -12 -15 -1 -27 -6 -27 -10
0 -4 -9 -8 -19 -8 -11 0 -23 -5 -26 -10 -4 -6 -11 -8 -16 -5 -5 4 -9 1 -9 -5
0 -6 -4 -9 -9 -5 -5 3 -15 -1 -23 -8 -7 -8 -19 -12 -26 -9 -6 2 -12 -1 -12 -8
0 -6 -4 -8 -10 -5 -5 3 -10 1 -10 -4 0 -6 -3 -11 -7 -10 -15 2 -53 -13 -53
-21 0 -5 -11 -7 -25 -6 -13 2 -22 -1 -19 -5 5 -8 -3 -11 -23 -8 -3 0 -10 -6
-15 -15 -5 -9 -13 -14 -18 -11 -5 3 -11 1 -15 -5 -4 -6 -11 -8 -16 -5 -5 4 -9
1 -9 -4 0 -6 -9 -11 -20 -11 -11 0 -20 -4 -20 -10 0 -5 -9 -10 -19 -10 -11 0
-27 -7 -35 -16 -9 -8 -16 -12 -16 -8 0 5 -5 3 -11 -3 -6 -6 -18 -9 -27 -6 -10
4 -13 2 -8 -5 6 -10 -6 -17 -18 -9 -2 1 -13 -6 -24 -16 -15 -14 -21 -15 -25
-5 -4 10 -6 10 -6 1 -1 -7 -7 -13 -15 -13 -7 0 -19 -7 -26 -15 -7 -8 -16 -13
-20 -10 -5 3 -12 0 -15 -6 -4 -5 -13 -8 -21 -5 -8 3 -13 0 -11 -7 1 -7 -4 -11
-12 -9 -7 2 -22 -5 -32 -14 -10 -9 -22 -13 -27 -10 -6 3 -13 -1 -16 -9 -3 -8
-9 -14 -13 -13 -4 1 -27 -8 -51 -20 -23 -13 -47 -20 -51 -17 -5 2 -12 -2 -15
-11 -3 -8 -10 -12 -16 -9 -5 3 -10 2 -10 -2 0 -9 -69 -39 -82 -35 -5 1 -8 -3
-8 -9 0 -5 -4 -8 -9 -4 -6 3 -14 -3 -20 -12 -8 -14 -10 -15 -11 -3 0 13 -1 13
-10 0 -5 -8 -13 -15 -17 -16 -4 0 -21 -7 -38 -14 -16 -7 -33 -13 -37 -12 -5 1
-8 -3 -8 -9 0 -6 -7 -8 -16 -5 -10 4 -13 2 -8 -6 5 -8 2 -9 -10 -5 -9 4 -15 3
-12 -2 3 -5 -7 -11 -23 -14 -16 -3 -36 -13 -45 -22 -9 -9 -16 -13 -16 -9 0 3
-7 1 -15 -6 -8 -7 -15 -9 -15 -4 0 5 -5 1 -11 -8 -5 -10 -15 -18 -22 -18 -7 0
-6 4 3 10 8 5 10 10 4 10 -6 0 -17 -7 -24 -15 -7 -9 -19 -14 -27 -11 -7 3 -13
2 -13 -3 0 -8 -48 -35 -65 -36 -5 0 -16 -6 -24 -13 -7 -7 -20 -11 -28 -8 -8 3
-11 1 -8 -4 6 -9 -8 -14 -27 -11 -5 0 -8 -4 -8 -10 0 -5 -4 -8 -9 -4 -5 3 -12
1 -16 -5 -4 -6 -10 -8 -15 -5 -4 3 -10 -2 -14 -10 -3 -9 -12 -12 -22 -8 -12 4
-15 3 -10 -5 5 -8 0 -12 -13 -12 -12 0 -21 -4 -21 -10 0 -5 -5 -10 -11 -10 -5
0 -7 5 -4 11 4 6 -2 5 -14 -3 -12 -7 -21 -16 -21 -21 0 -4 -4 -6 -9 -2 -5 3
-13 0 -16 -6 -4 -5 -13 -8 -21 -5 -8 3 -13 0 -11 -6 1 -7 -4 -13 -10 -14 -7
-1 -15 -3 -18 -4 -7 -3 -22 -7 -36 -9 -5 0 -7 -6 -4 -12 4 -6 1 -9 -6 -8 -20
4 -59 -11 -59 -22 0 -6 -4 -7 -10 -4 -5 3 -10 2 -10 -4 0 -6 -7 -8 -15 -5 -8
4 -15 1 -15 -6 0 -6 -4 -8 -10 -5 -5 3 -10 1 -10 -5 0 -6 -4 -9 -9 -5 -5 3
-17 -2 -25 -11 -9 -8 -16 -12 -16 -9 0 4 -11 0 -25 -9 -14 -9 -25 -13 -25 -9
0 5 -4 4 -8 -2 -12 -17 -52 -36 -62 -30 -6 4 -10 2 -10 -2 0 -5 -9 -14 -21
-21 -12 -8 -18 -9 -14 -3 3 6 2 11 -3 11 -6 0 -13 -7 -16 -16 -3 -8 -10 -12
-16 -9 -5 3 -10 1 -10 -5 0 -6 -5 -8 -10 -5 -6 3 -13 -1 -16 -9 -3 -9 -10 -13
-15 -10 -6 3 -16 0 -24 -6 -8 -7 -15 -9 -15 -4 0 4 -7 -1 -16 -12 -8 -10 -12
-12 -8 -4 6 12 4 12 -12 -1 -10 -9 -25 -14 -33 -11 -8 3 -11 0 -7 -7 6 -10
-12 -16 -36 -12 -5 0 -8 -4 -8 -9 0 -6 -7 -10 -15 -10 -8 0 -15 -4 -15 -8 0
-4 -10 -8 -22 -9 -11 -1 -24 -7 -28 -14 -4 -6 -12 -9 -18 -5 -5 3 -13 -1 -16
-10 -4 -10 -14 -14 -26 -11 -11 3 -18 1 -14 -4 3 -5 -4 -9 -16 -9 -13 0 -19
-4 -14 -12 5 -7 0 -9 -14 -6 -13 4 -23 0 -26 -9 -3 -8 -10 -12 -15 -8 -5 3
-12 1 -16 -5 -3 -5 -15 -10 -25 -10 -10 0 -20 -3 -22 -7 -5 -14 -89 -53 -99
-47 -5 3 -9 0 -9 -6 0 -6 -5 -8 -10 -5 -6 3 -13 -1 -16 -10 -6 -13 -8 -14 -15
-3 -7 10 -9 10 -9 0 0 -11 -31 -29 -53 -30 -4 0 -19 -8 -33 -17 -13 -9 -28
-13 -33 -10 -5 2 -11 -2 -15 -10 -3 -8 -15 -15 -26 -15 -11 0 -20 -4 -20 -10
0 -5 -9 -10 -20 -10 -11 0 -20 -5 -20 -11 0 -5 -4 -8 -9 -4 -5 3 -12 1 -16 -5
-4 -6 -11 -8 -16 -5 -5 4 -9 1 -9 -5 0 -6 -4 -9 -9 -5 -5 3 -12 1 -16 -5 -4
-6 -10 -8 -15 -5 -4 3 -10 -2 -14 -10 -3 -8 -12 -12 -19 -9 -8 3 -17 -2 -21
-11 -3 -9 -10 -14 -15 -11 -5 4 -15 0 -23 -7 -7 -7 -23 -12 -35 -11 -12 1 -20
-2 -18 -6 4 -6 -51 -39 -75 -46 -3 0 -22 -8 -43 -18 -21 -9 -43 -14 -49 -10
-6 4 -8 3 -5 -3 4 -6 -8 -17 -26 -24 -17 -7 -35 -18 -39 -23 -5 -7 -8 -6 -8 2
0 10 -4 9 -16 -3 -9 -9 -24 -13 -32 -10 -9 3 -13 3 -10 -1 9 -8 -62 -45 -72
-39 -5 3 -11 -2 -14 -11 -4 -9 -13 -14 -21 -10 -8 3 -15 2 -15 -2 0 -4 -9 -13
-21 -20 -12 -8 -18 -9 -14 -3 11 19 -3 12 -25 -11 -14 -15 -20 -18 -20 -7 0 8
-3 10 -8 4 -12 -17 -91 -57 -101 -51 -4 3 -16 -3 -26 -14 -10 -11 -21 -17 -26
-14 -4 2 -17 -3 -29 -13 -11 -10 -25 -19 -30 -19 -6 -1 -12 -3 -15 -4 -3 -1
-10 -3 -15 -4 -6 0 -15 -8 -20 -16 -5 -8 -10 -11 -10 -6 0 5 -8 2 -17 -5 -15
-12 -16 -12 -8 1 6 10 2 9 -12 -3 -12 -10 -27 -19 -35 -20 -7 -2 -24 -10 -37
-19 -13 -10 -28 -15 -33 -12 -4 3 -8 1 -8 -3 0 -5 -10 -9 -22 -10 -11 -1 -24
-6 -27 -11 -7 -9 -44 -25 -49 -20 -2 2 -8 -5 -14 -15 -7 -14 -13 -16 -24 -6
-11 9 -14 8 -14 -5 0 -10 -4 -14 -10 -11 -5 3 -10 1 -10 -5 0 -6 -4 -8 -10 -5
-5 3 -10 2 -10 -4 0 -6 -7 -8 -15 -5 -8 4 -15 1 -15 -6 0 -6 -4 -9 -9 -6 -5 3
-14 -1 -21 -10 -7 -8 -19 -13 -26 -10 -7 3 -15 -2 -18 -10 -3 -9 -10 -13 -15
-9 -5 3 -12 1 -16 -5 -4 -6 -11 -8 -16 -5 -5 4 -12 -1 -15 -10 -6 -13 -8 -14
-15 -3 -6 10 -9 8 -9 -7 0 -17 -2 -17 -10 -5 -6 9 -10 10 -10 3 0 -6 -20 -19
-45 -28 -24 -10 -42 -21 -40 -25 3 -5 -6 -7 -19 -6 -14 2 -27 -3 -30 -11 -3
-8 -10 -12 -15 -8 -5 3 -12 1 -16 -5 -3 -5 -15 -10 -26 -10 -13 0 -18 -4 -13
-12 5 -8 2 -9 -9 -5 -10 4 -17 2 -17 -4 0 -6 -7 -8 -15 -5 -9 3 -18 -1 -21 -9
-4 -8 -10 -13 -14 -10 -5 3 -11 1 -15 -5 -4 -6 -10 -8 -15 -5 -4 3 -10 -2 -14
-10 -3 -8 -14 -15 -25 -15 -11 0 -23 -4 -26 -10 -3 -5 -15 -10 -26 -10 -10 0
-19 -5 -19 -11 0 -5 -4 -7 -10 -4 -6 3 -10 1 -10 -5 0 -6 -4 -9 -8 -6 -5 3
-23 -4 -41 -15 -19 -11 -30 -14 -26 -7 4 7 1 6 -7 -3 -7 -9 -30 -22 -50 -29
-21 -8 -38 -18 -38 -23 0 -4 -5 -5 -11 -2 -6 4 -17 -1 -25 -11 -9 -11 -13 -14
-10 -7 4 7 -4 6 -24 -3 -16 -9 -30 -20 -30 -26 0 -6 -7 -5 -17 3 -11 10 -14
10 -9 2 6 -12 -5 -18 -26 -14 -5 0 -8 -4 -8 -9 0 -6 -9 -10 -20 -10 -11 0 -20
-4 -20 -10 0 -5 -7 -10 -15 -10 -8 0 -15 -4 -15 -10 0 -5 -7 -7 -15 -4 -8 4
-15 1 -15 -6 0 -6 -4 -9 -9 -5 -5 3 -16 -2 -24 -10 -19 -18 -31 -20 -22 -2 4
6 -1 3 -9 -7 -9 -11 -16 -16 -16 -11 0 4 -10 0 -22 -11 -12 -10 -18 -13 -14
-6 7 11 4 11 -13 0 -12 -7 -21 -16 -21 -20 0 -4 -7 -4 -17 -1 -10 4 -14 2 -10
-4 6 -10 -56 -29 -77 -24 -5 1 -6 -4 -3 -12 3 -7 0 -14 -6 -15 -32 -3 -49 -10
-58 -23 -5 -8 -9 -10 -9 -5 0 5 -8 2 -17 -5 -14 -12 -16 -12 -9 1 4 8 1 7 -8
-4 -8 -10 -19 -15 -24 -12 -6 3 -13 -1 -16 -10 -4 -9 -9 -14 -13 -10 -3 3 -17
-1 -30 -9 -13 -9 -28 -13 -33 -10 -6 3 -10 2 -10 -3 0 -8 -44 -34 -65 -38 -33
-6 -54 -18 -48 -27 4 -6 0 -8 -10 -4 -10 3 -17 2 -17 -3 0 -5 -10 -7 -21 -5
-12 3 -19 2 -15 -2 9 -9 -32 -35 -44 -28 -6 3 -13 -1 -16 -9 -3 -9 -10 -14
-14 -11 -5 3 -25 -4 -44 -16 -20 -11 -36 -18 -36 -14 0 3 -7 -1 -16 -9 -8 -9
-20 -14 -25 -10 -5 3 -12 -2 -15 -10 -3 -9 -11 -13 -17 -9 -5 3 -16 -2 -24
-12 -7 -11 -13 -13 -13 -6 0 8 -9 6 -27 -7 -16 -10 -43 -24 -60 -31 -18 -8
-33 -19 -33 -25 0 -6 -5 -4 -10 4 -5 8 -10 10 -10 4 0 -7 -11 -15 -25 -18 -14
-4 -25 -11 -25 -16 0 -5 -7 -7 -15 -4 -8 4 -17 -1 -21 -10 -3 -9 -10 -16 -16
-16 -5 0 -6 6 -3 13 4 6 -1 3 -9 -7 -9 -11 -16 -17 -16 -13 0 4 -10 2 -22 -5
-13 -7 -26 -11 -30 -10 -5 1 -8 -6 -8 -15 0 -14 -2 -15 -9 -5 -7 11 -11 11
-23 -2 -9 -8 -18 -12 -22 -9 -3 4 -6 1 -6 -6 0 -7 -4 -9 -10 -6 -5 3 -10 1
-10 -4 0 -6 -3 -10 -7 -10 -25 4 -43 -2 -37 -13 5 -8 2 -9 -9 -5 -10 3 -17 2
-17 -4 0 -6 -4 -8 -9 -4 -5 3 -16 -1 -24 -9 -8 -8 -17 -12 -21 -9 -3 4 -6 1
-6 -6 0 -7 -4 -10 -9 -6 -5 3 -16 -1 -24 -9 -8 -8 -17 -13 -20 -10 -2 3 -21
-5 -41 -17 -20 -11 -36 -18 -36 -14 0 3 -7 -1 -16 -9 -8 -9 -20 -14 -25 -11
-5 4 -9 2 -9 -3 0 -9 -47 -27 -62 -24 -5 1 -8 -2 -8 -7 0 -10 -30 -23 -41 -18
-3 1 -13 -6 -23 -16 -10 -9 -22 -15 -27 -12 -5 4 -9 1 -9 -5 0 -7 -7 -9 -16
-6 -8 3 -12 2 -9 -4 3 -6 -3 -10 -14 -10 -11 0 -23 -5 -26 -10 -4 -6 -11 -8
-16 -5 -5 4 -9 1 -9 -4 0 -6 -9 -11 -20 -11 -11 0 -23 -6 -26 -13 -3 -8 -11
-14 -19 -15 -8 -1 -22 -3 -30 -4 -8 -1 -15 -5 -15 -9 0 -7 -39 -22 -52 -20 -5
1 -8 -4 -8 -10 0 -5 -4 -7 -10 -4 -5 3 -10 1 -10 -4 0 -6 -9 -11 -20 -11 -11
0 -20 -4 -20 -10 0 -5 -9 -10 -19 -10 -11 0 -26 -6 -33 -12 -7 -7 -19 -13 -25
-14 -30 -2 -34 -5 -27 -16 5 -8 2 -9 -10 -5 -10 4 -19 1 -23 -9 -5 -13 -7 -13
-14 -2 -7 10 -9 10 -9 1 0 -7 -7 -13 -15 -13 -8 0 -15 -6 -15 -12 0 -9 -4 -8
-10 2 -8 13 -10 13 -10 -2 0 -11 -5 -15 -15 -12 -8 4 -15 1 -15 -6 0 -6 -4 -9
-9 -5 -5 3 -16 -2 -25 -11 -9 -8 -21 -12 -27 -8 -8 4 -9 3 -5 -4 4 -8 0 -12
-11 -12 -11 0 -25 -6 -32 -12 -11 -11 -12 -10 -6 2 8 13 6 13 -8 1 -9 -7 -14
-17 -11 -22 3 -5 -2 -6 -11 -3 -8 4 -22 1 -30 -6 -8 -7 -15 -9 -15 -6 0 4 -6
1 -14 -7 -11 -11 -14 -41 -13 -131 2 -73 -2 -116 -8 -116 -7 0 -7 -3 0 -8 6
-4 10 -75 10 -177 0 -102 -4 -173 -10 -177 -7 -5 -7 -8 0 -8 6 0 10 -98 10
-275 0 -177 -4 -275 -10 -275 -7 0 -7 -3 0 -8 6 -4 10 -183 10 -500 0 -321 -3
-492 -10 -492 -7 0 -7 -3 0 -8 6 -4 10 -169 10 -457 0 -288 -4 -453 -10 -457
-7 -5 -7 -8 0 -8 7 0 10 -152 10 -435 0 -283 -3 -435 -10 -435 -7 0 -7 -3 0
-8 6 -4 10 -75 10 -177 0 -102 -4 -173 -10 -177 -7 -5 -7 -8 0 -8 6 0 10 -118
10 -335 0 -217 -4 -335 -10 -335 -7 0 -7 -3 0 -8 6 -4 10 -29 10 -57 0 -27 -4
-53 -10 -57 -7 -5 -7 -8 0 -8 6 0 10 -58 10 -155 0 -97 -4 -155 -10 -155 -7 0
-7 -3 0 -8 6 -4 10 -55 10 -117 0 -62 -4 -113 -10 -117 -7 -5 -7 -8 0 -8 6 0
10 -45 10 -115 0 -70 -4 -115 -10 -115 -7 0 -7 -3 0 -8 6 -4 10 -82 10 -197 0
-115 -4 -193 -10 -197 -7 -5 -7 -8 0 -8 6 0 10 -92 10 -255 0 -163 -4 -255
-10 -255 -7 0 -7 -3 0 -8 6 -4 10 -75 10 -177 0 -102 -4 -173 -10 -177 -7 -5
-7 -8 0 -8 6 0 10 -25 10 -55 0 -30 -4 -55 -10 -55 -7 0 -7 -3 0 -8 6 -4 10
-62 10 -137 0 -75 -4 -133 -10 -137 -7 -5 -7 -8 0 -8 6 0 10 -45 10 -115 0
-70 -4 -115 -10 -115 -7 0 -7 -3 0 -8 6 -4 10 -122 10 -317 0 -195 -4 -313
-10 -317 -7 -5 -7 -8 0 -8 6 0 10 -72 10 -195 0 -123 -4 -195 -10 -195 -7 0
-7 -3 0 -8 6 -4 10 -102 10 -257 0 -155 -4 -253 -10 -257 -7 -5 -7 -8 0 -8 6
0 10 -25 10 -55 0 -30 -4 -55 -10 -55 -7 0 -7 -3 0 -8 6 -4 10 -55 10 -117 0
-62 -4 -113 -10 -117 -7 -5 -7 -8 0 -8 6 0 10 -112 10 -315 0 -203 -4 -315
-10 -315 -7 0 -7 -3 0 -8 6 -4 10 -95 10 -237 0 -142 -4 -233 -10 -237 -7 -5
-7 -8 0 -8 6 0 10 -38 10 -95 0 -57 -4 -95 -10 -95 -7 0 -7 -3 0 -8 6 -4 10
-129 10 -337 0 -208 -4 -333 -10 -337 -7 -5 -7 -8 0 -8 6 0 10 -45 10 -115 0
-70 -4 -115 -10 -115 -7 0 -7 -3 0 -8 6 -4 10 -182 10 -497 0 -315 -4 -493
-10 -497 -7 -5 -7 -8 0 -8 6 0 10 -25 10 -55 0 -30 -4 -55 -10 -55 -7 0 -7 -3
0 -8 6 -4 10 -109 10 -277 0 -168 -4 -273 -10 -277 -7 -5 -7 -8 0 -8 12 0 12
-451 0 -470 -5 -8 -4 -11 2 -7 5 3 16 -3 23 -14 8 -10 20 -19 27 -19 7 0 13
-5 13 -11 0 -5 5 -7 10 -4 5 3 10 1 10 -5 0 -6 8 -10 17 -8 10 2 18 -3 18 -11
0 -8 8 -15 18 -17 9 -1 15 2 11 7 -3 5 1 12 10 15 8 3 12 12 9 20 -3 7 2 17
11 20 9 3 13 10 10 15 -3 5 -1 9 5 9 6 0 7 7 4 17 -4 11 -3 14 5 9 7 -4 14 3
18 19 3 13 9 23 13 20 4 -2 16 16 26 40 10 25 21 42 25 40 4 -3 10 6 14 18 3
13 16 35 29 49 13 13 21 30 19 36 -2 7 1 12 7 12 6 0 11 7 11 15 0 8 5 15 11
15 5 0 8 4 5 9 -3 5 1 12 10 15 8 3 13 10 10 15 -3 5 1 12 10 15 9 3 14 11 12
18 -2 6 6 22 19 36 12 13 20 28 18 32 -3 4 2 10 10 14 8 3 15 12 15 21 0 8 5
15 12 15 6 0 8 3 5 7 -4 3 1 12 11 20 11 10 12 12 2 8 -8 -4 -6 1 5 10 11 9
19 21 18 26 -2 5 2 9 8 9 5 0 8 4 4 10 -3 5 3 20 15 32 42 48 48 57 42 62 -3
4 4 15 16 26 12 12 22 25 22 31 0 6 7 17 15 26 8 8 13 18 10 23 -3 4 2 11 11
14 9 3 12 11 8 18 -5 7 -2 9 8 6 8 -4 15 0 15 8 0 7 -5 10 -11 7 -6 -4 -5 1 3
10 7 9 18 14 24 10 5 -3 7 -1 3 5 -3 6 0 16 7 24 7 7 14 15 15 18 5 23 16 39
23 35 4 -3 6 4 4 16 -2 12 -2 19 2 16 3 -3 12 0 19 8 17 17 18 28 2 20 -7 -4
-3 2 9 13 12 11 19 22 16 26 -3 3 2 8 11 12 9 3 13 10 10 15 -3 5 0 9 5 9 6 0
11 6 11 13 0 8 9 24 20 37 19 22 24 35 21 53 -1 5 3 6 8 3 8 -5 25 22 21 33
-1 2 3 7 8 10 6 3 22 28 36 55 14 27 26 45 26 40 1 -5 7 6 15 24 8 17 19 32
25 32 6 0 9 4 6 9 -3 5 1 14 9 21 8 7 15 21 15 31 0 11 5 18 12 16 7 -1 13 4
14 11 1 6 2 17 3 23 0 5 6 7 11 4 6 -3 10 3 10 13 0 11 7 25 15 32 8 7 15 17
15 22 0 11 42 72 53 76 4 2 5 8 1 13 -3 5 0 9 5 9 6 0 11 7 11 15 0 8 5 15 11
15 5 0 7 5 4 10 -3 6 -2 10 3 10 7 0 36 50 33 58 -1 1 8 11 19 22 11 11 20 27
20 35 0 8 5 15 10 15 6 0 10 7 10 16 0 8 4 13 9 10 5 -3 12 1 15 10 4 10 2 13
-7 7 -6 -4 3 11 20 33 18 23 30 44 26 48 -3 3 -1 6 5 6 6 0 14 9 17 20 4 11
10 18 15 15 4 -3 7 3 6 12 -2 10 5 24 16 31 10 7 16 18 13 23 -4 5 -2 9 3 9 6
0 13 12 17 27 5 22 8 24 17 12 7 -11 9 -9 5 8 -3 13 1 24 9 27 8 3 14 12 14
21 0 8 4 15 10 15 5 0 18 20 29 45 11 25 25 45 31 45 6 0 9 4 6 8 -3 5 4 19
15 31 12 12 19 25 16 27 -3 3 6 16 20 30 13 13 21 29 18 34 -3 6 -3 10 2 10 4
0 17 12 27 27 13 17 14 24 5 19 -8 -4 -4 1 8 12 12 11 19 22 16 26 -4 3 -1 6
5 6 7 0 11 6 9 13 -1 6 3 11 10 10 7 -2 10 4 7 12 -4 8 -1 15 6 15 6 0 8 5 5
10 -3 6 -1 10 4 10 6 0 11 6 11 14 0 8 7 17 16 20 8 3 13 10 10 14 -3 5 4 19
15 31 11 12 17 26 13 33 -4 6 -3 8 4 4 6 -3 13 3 17 14 3 11 11 20 16 20 6 0
8 4 4 9 -3 5 -1 12 5 16 6 4 8 11 5 16 -4 5 1 9 10 9 9 0 14 4 11 9 -3 5 1 12
10 15 8 3 13 10 9 15 -3 5 -1 12 5 16 6 4 7 11 4 17 -4 6 -2 8 3 5 10 -6 29
23 21 31 -2 2 5 8 15 13 9 6 17 18 17 28 0 11 7 22 16 25 8 3 13 10 9 15 -3 6
3 14 12 20 10 5 17 11 15 13 -8 7 11 37 20 32 5 -3 8 0 7 7 -3 21 12 50 23 43
5 -3 8 2 6 12 -2 12 2 18 10 16 8 -1 11 2 8 7 -4 5 -1 13 5 16 5 4 8 14 5 22
-3 8 -2 12 2 9 9 -5 48 54 44 67 -1 4 5 7 13 7 8 0 12 6 9 14 -3 7 2 16 11 20
9 3 14 10 11 15 -3 4 3 16 14 26 11 10 20 24 20 31 0 7 7 20 16 28 8 9 12 16
7 16 -4 0 -3 4 2 8 21 14 56 72 50 82 -3 6 4 14 17 19 13 6 20 10 15 10 -4 1
-1 11 8 24 8 13 12 27 8 32 -5 4 -3 6 2 3 12 -7 37 17 28 26 -4 3 -1 6 6 6 7
0 9 5 6 10 -3 6 -1 10 6 10 7 0 9 3 6 7 -4 3 1 12 11 20 11 10 12 12 2 8 -10
-4 -9 -2 3 8 9 8 17 19 17 26 0 6 5 11 11 11 5 0 8 4 4 9 -3 6 3 14 12 20 10
6 14 11 10 11 -5 0 -1 7 7 16 9 8 14 20 11 25 -4 5 1 9 9 9 9 0 15 3 14 8 -4
14 33 73 42 67 6 -3 7 0 4 8 -3 8 0 18 5 22 6 3 8 11 5 17 -4 6 -2 8 3 5 10
-6 28 19 25 34 -1 4 9 18 21 31 13 14 21 31 19 38 -3 7 0 10 7 6 6 -4 11 -1
11 8 0 9 5 16 11 16 5 0 8 4 5 8 -3 5 6 21 19 36 14 16 22 33 19 37 -3 5 1 12
9 15 8 3 22 23 32 45 10 21 22 39 27 39 5 0 7 4 4 9 -3 5 1 12 10 15 8 3 12
10 9 16 -3 5 -1 10 5 10 6 0 8 5 5 10 -3 6 1 13 10 16 9 4 14 13 11 21 -3 8
-2 12 2 9 5 -3 17 12 28 32 10 20 26 42 34 49 8 7 11 13 7 13 -5 0 -1 7 7 16
9 8 14 20 10 25 -3 5 2 12 10 15 9 3 16 12 16 20 0 7 6 17 14 21 8 4 15 11 16
15 2 22 13 37 23 31 6 -4 7 -1 3 6 -5 7 0 19 10 27 11 9 13 13 7 9 -7 -3 -3 9
10 28 12 19 26 32 31 29 5 -3 7 2 3 11 -3 10 -2 17 3 17 6 0 10 7 10 15 0 8 5
15 10 15 6 0 10 7 10 16 0 9 5 12 13 8 6 -4 9 -4 5 1 -4 4 -2 15 5 23 10 13 9
15 -3 8 -8 -4 -5 1 8 12 12 11 22 28 22 37 0 9 5 13 10 10 6 -3 10 1 10 9 0 9
5 16 11 16 5 0 7 5 4 10 -3 6 -1 10 5 10 6 0 9 4 6 9 -3 5 1 12 10 15 8 3 12
10 9 16 -3 6 1 13 9 16 9 3 13 10 10 15 -3 5 2 12 10 15 9 3 13 10 10 15 -3 5
2 12 10 15 9 3 13 11 10 18 -3 6 3 1 14 -11 11 -13 24 -23 28 -23 10 0 87 -52
96 -65 4 -5 8 -6 8 -1 0 5 9 -1 20 -14 11 -13 20 -19 20 -14 0 5 5 2 10 -6 5
-8 14 -15 20 -15 6 0 15 -7 20 -15 5 -8 10 -11 10 -7 0 5 7 2 15 -5 34 -31 45
-38 45 -31 0 4 7 -1 15 -11 8 -11 15 -16 15 -11 0 5 7 0 15 -11 8 -10 15 -15
15 -11 0 4 11 -4 25 -18 14 -14 32 -25 40 -25 8 0 15 -4 15 -10 0 -5 7 -10 15
-10 8 0 20 -9 27 -20 7 -11 17 -20 22 -20 5 0 24 -11 43 -26 18 -14 33 -21 33
-17 0 4 5 0 11 -10 5 -9 17 -17 24 -17 8 0 15 -5 15 -11 0 -5 5 -7 10 -4 6 3
10 3 10 -2 0 -4 17 -19 38 -33 20 -14 46 -33 56 -42 11 -10 25 -18 32 -18 7 0
14 -4 16 -9 2 -5 9 -11 17 -13 8 -2 28 -15 44 -30 17 -16 36 -28 42 -28 7 0
15 -7 19 -15 3 -8 12 -15 21 -15 8 0 15 -5 15 -11 0 -6 7 -8 16 -5 9 3 12 2 9
-4 -4 -6 7 -15 24 -21 17 -6 31 -15 31 -20 0 -5 6 -9 13 -9 6 0 25 -14 40 -30
16 -17 33 -28 38 -24 5 3 12 -2 15 -10 3 -9 12 -16 20 -16 8 0 23 -9 33 -19
11 -11 22 -17 25 -14 3 3 8 -2 12 -11 3 -9 10 -16 15 -16 6 0 19 -9 31 -20 12
-11 28 -20 35 -20 7 0 13 -4 13 -8 0 -5 16 -16 35 -25 20 -9 38 -24 41 -32 4
-8 10 -12 16 -9 5 3 16 -3 24 -14 7 -11 33 -30 56 -42 24 -12 48 -27 53 -33 6
-7 23 -18 38 -25 18 -8 26 -17 21 -25 -4 -6 -4 -9 1 -5 5 5 22 -2 39 -15 17
-12 43 -29 58 -36 15 -8 37 -22 47 -33 11 -10 24 -18 30 -18 5 0 12 -7 15 -16
4 -9 9 -14 12 -11 4 3 15 -3 27 -14 11 -10 33 -25 49 -31 15 -7 28 -16 28 -20
0 -5 7 -8 16 -8 8 0 12 -5 9 -10 -3 -6 3 -10 14 -10 12 0 21 -6 21 -14 0 -8
11 -17 25 -20 14 -4 25 -11 25 -16 0 -6 7 -10 15 -10 8 0 15 -4 15 -10 0 -5 3
-9 8 -8 9 4 102 -63 102 -73 0 -5 7 -6 15 -3 8 4 15 1 15 -4 0 -6 22 -23 50
-39 27 -15 50 -31 50 -35 0 -5 7 -8 15 -8 9 0 18 -7 21 -15 4 -8 10 -12 15 -9
5 3 9 1 9 -3 0 -5 22 -22 50 -38 27 -17 50 -33 50 -36 0 -4 11 -10 25 -13 14
-4 23 -10 21 -15 -3 -5 7 -15 22 -23 34 -17 145 -89 152 -98 3 -4 19 -15 37
-25 18 -10 30 -22 27 -27 -3 -5 -2 -8 3 -7 17 3 32 -1 45 -14 7 -6 30 -23 50
-37 21 -14 38 -28 38 -32 0 -5 7 -8 15 -8 9 0 18 -7 21 -15 4 -8 10 -12 15
-10 4 3 17 -3 29 -15 11 -11 25 -20 30 -20 6 0 10 -5 10 -11 0 -5 4 -8 9 -4 5
3 16 -4 24 -15 7 -11 17 -17 20 -13 4 3 7 1 7 -5 0 -7 6 -12 13 -12 7 0 23 -9
34 -19 12 -11 24 -17 27 -14 3 4 16 -2 28 -13 13 -12 18 -13 13 -4 -7 13 -6
13 7 2 13 -10 16 -9 21 7 3 11 -1 26 -9 32 -9 7 -11 16 -5 23 12 15 10 48 -3
65 -8 11 -8 13 2 7 14 -8 12 19 -2 43 -6 9 -5 12 1 8 14 -9 12 101 -1 122 -6
9 -5 12 2 7 14 -8 12 34 -2 53 -8 11 -8 13 2 7 14 -8 12 19 -2 43 -6 9 -5 12
1 8 15 -9 14 64 0 82 -9 11 -9 13 0 8 14 -9 13 70 -1 92 -6 10 -5 12 2 7 14
-8 12 20 -2 43 -6 9 -5 12 1 8 14 -9 12 101 -1 122 -6 9 -5 12 2 7 14 -8 12
34 -2 53 -8 11 -8 13 2 7 14 -8 12 19 -2 43 -6 9 -5 12 2 7 14 -9 13 54 -2 73
-8 11 -8 13 1 8 13 -8 13 100 -1 122 -6 9 -5 12 2 7 14 -8 12 34 -2 53 -8 11
-8 13 2 7 14 -8 12 19 -2 43 -6 10 -5 12 2 7 14 -8 11 51 -2 73 -7 10 -5 12 3
6 10 -5 11 2 7 30 -5 27 -3 34 6 29 10 -6 10 -5 1 7 -10 12 -10 18 0 29 8 9 9
11 0 6 -6 -3 -14 -2 -18 4 -3 5 2 10 12 10 11 0 14 3 7 8 -6 4 -10 16 -8 27 2
10 -3 26 -9 34 -9 12 -9 13 1 7 14 -8 12 19 -2 43 -6 9 -5 12 1 8 7 -5 11 6
11 28 0 19 -4 37 -9 40 -4 3 -6 12 -3 20 4 8 11 12 16 9 7 -4 7 0 1 12 -5 11
-8 31 -7 47 2 19 -1 25 -9 20 -9 -5 -9 -3 0 8 14 18 14 58 -1 78 -8 11 -8 13
2 7 14 -8 12 19 -2 43 -6 9 -5 12 1 8 14 -9 15 63 2 80 -7 8 -4 15 8 22 10 6
13 11 7 11 -7 0 -10 13 -8 32 2 18 -1 35 -8 40 -9 5 -9 8 -1 8 13 0 12 18 -1
39 -6 9 -5 12 1 8 14 -9 12 101 -1 122 -6 9 -5 12 2 7 14 -8 12 34 -2 53 -8
11 -8 13 2 7 14 -8 12 19 -2 43 -6 10 -5 12 3 7 8 -6 11 2 8 28 -3 20 0 39 5
42 5 3 4 12 -3 20 -6 8 -8 14 -4 14 4 0 1 8 -6 17 -8 10 -9 14 -2 10 15 -9 14
32 -1 52 -8 10 -8 13 0 8 7 -4 10 13 10 49 0 31 -5 54 -11 54 -5 0 -3 4 5 10
8 5 11 12 7 16 -4 4 -1 14 6 22 9 13 9 14 0 8 -9 -5 -13 0 -13 14 0 14 4 19
13 14 9 -6 9 -5 0 7 -10 12 -10 18 0 29 9 10 9 11 0 6 -7 -4 -13 -3 -13 1 0 5
6 15 13 22 10 10 8 11 -8 5 -18 -7 -19 -6 -6 9 8 10 11 20 8 24 -4 3 -1 13 6
21 8 10 8 13 1 9 -7 -4 -15 0 -18 9 -3 8 -2 12 4 9 6 -3 10 1 10 9 0 8 -5 18
-12 22 -7 5 -5 11 7 21 11 7 14 13 8 13 -6 0 -9 12 -7 27 1 15 -3 34 -9 42 -9
12 -9 13 1 7 14 -8 12 19 -2 43 -6 9 -5 12 1 8 14 -9 12 101 -1 122 -6 9 -5
12 2 7 14 -8 12 34 -2 53 -8 11 -8 13 2 7 14 -8 12 19 -2 43 -6 9 -5 12 1 8
14 -9 15 63 2 80 -7 8 -4 15 8 22 10 6 13 11 7 11 -6 0 -10 12 -8 27 1 15 -3
34 -9 42 -7 8 -7 12 -1 8 7 -4 10 13 10 49 0 30 -4 54 -10 54 -5 0 -1 7 10 16
10 8 13 13 7 9 -7 -3 -13 -1 -13 4 0 6 6 11 13 11 9 0 9 2 -1 9 -15 9 -13 52
3 63 6 5 5 8 -4 8 -11 0 -11 3 -1 15 10 12 9 16 -4 21 -15 6 -15 8 1 21 10 8
12 12 6 8 -7 -3 -13 -2 -13 2 0 5 6 15 13 22 10 11 9 12 -2 6 -11 -6 -13 -2
-7 18 3 15 1 29 -5 33 -9 5 -6 11 6 21 11 7 14 13 8 13 -6 0 -9 12 -7 27 1 15
-3 34 -9 42 -9 12 -9 13 1 7 14 -8 12 19 -2 43 -6 9 -5 12 1 8 14 -9 12 101
-1 122 -6 9 -5 12 2 7 14 -8 12 34 -2 53 -8 11 -8 13 2 7 14 -8 12 19 -2 43
-6 9 -5 12 1 8 14 -9 15 63 2 80 -7 8 -4 15 8 22 10 6 13 11 7 11 -6 0 -10 12
-8 27 1 15 -3 34 -9 42 -9 12 -9 13 1 7 8 -5 11 -1 9 13 -2 11 -6 23 -9 27
-10 9 3 35 14 28 6 -4 6 1 -1 13 -6 11 -8 23 -4 26 3 4 0 14 -8 24 -8 9 -9 14
-3 10 15 -9 15 73 0 92 -8 11 -8 13 2 7 14 -8 12 19 -2 43 -6 9 -5 12 2 7 14
-9 13 54 -2 73 -8 11 -8 13 1 8 13 -8 13 100 -1 122 -6 9 -5 12 2 7 14 -8 12
34 -2 53 -8 11 -8 13 2 7 8 -5 11 -1 9 13 -2 11 -6 23 -9 27 -10 9 3 35 14 28
7 -4 7 0 1 12 -5 11 -8 43 -6 73 2 36 -1 58 -10 63 -8 5 -8 8 -1 8 13 0 12 58
0 78 -10 17 3 15 21 -3 8 -9 20 -14 26 -12 6 2 22 -8 34 -21 13 -14 23 -22 23
-18 0 4 11 -4 25 -18 13 -13 34 -27 45 -31 11 -3 20 -11 20 -16 0 -5 6 -9 13
-9 7 0 23 -9 35 -20 12 -11 26 -20 32 -20 5 0 19 -9 29 -19 11 -11 30 -25 42
-32 13 -6 28 -16 33 -20 31 -26 85 -57 90 -51 3 3 6 -2 6 -12 0 -9 5 -14 10
-11 6 3 10 1 10 -5 0 -6 8 -14 18 -17 9 -4 31 -17 48 -30 17 -13 36 -23 42
-23 7 0 12 -4 12 -10 0 -5 7 -10 15 -10 8 0 15 -5 15 -10 0 -6 4 -9 9 -8 5 2
18 -8 30 -21 12 -13 21 -21 21 -17 0 4 10 -2 22 -14 12 -11 28 -20 35 -20 7 0
13 -5 13 -11 0 -5 5 -7 10 -4 6 3 10 1 10 -4 0 -6 7 -11 16 -11 8 0 12 -5 9
-10 -3 -6 1 -10 9 -10 9 0 16 -4 16 -10 0 -5 5 -10 10 -10 6 0 20 -9 32 -20
12 -11 28 -20 35 -20 7 0 13 -3 13 -8 0 -4 17 -16 38 -27 43 -23 56 -32 85
-61 12 -11 36 -27 54 -34 17 -8 29 -18 27 -22 -3 -4 4 -8 15 -8 11 0 27 -10
35 -22 9 -12 16 -19 16 -15 0 4 12 -4 27 -18 15 -14 33 -25 39 -25 6 0 17 -7
24 -16 8 -8 28 -21 47 -29 18 -8 33 -19 33 -25 0 -6 5 -8 10 -5 6 3 10 1 10
-5 0 -6 5 -8 10 -5 6 3 10 -1 10 -10 0 -9 5 -13 10 -10 6 3 10 2 10 -3 0 -5
14 -15 30 -22 17 -7 30 -16 30 -20 0 -4 14 -13 30 -20 17 -7 30 -20 30 -29 0
-14 2 -14 10 -1 8 13 10 12 10 -3 0 -10 5 -15 10 -12 6 3 10 2 10 -3 0 -5 12
-15 28 -23 15 -8 33 -21 40 -29 12 -13 13 -13 6 0 -4 8 4 5 18 -7 13 -13 28
-23 34 -23 5 0 25 -14 44 -30 53 -45 54 -45 73 -53 9 -3 17 -11 17 -17 0 -6 4
-9 9 -6 5 3 20 -5 35 -19 14 -13 26 -21 26 -18 0 4 14 -6 30 -22 17 -16 30
-25 30 -21 0 4 9 -2 21 -13 12 -11 34 -25 50 -31 16 -7 29 -16 29 -21 0 -5 5
-9 11 -9 6 0 17 -6 24 -12 32 -29 45 -38 79 -56 19 -11 33 -22 29 -26 -3 -3 1
-6 9 -6 9 0 21 -7 28 -15 7 -8 16 -12 21 -9 5 3 9 -3 9 -12 0 -10 3 -15 6 -11
6 6 17 -1 55 -35 10 -10 21 -18 25 -17 10 2 114 -65 114 -74 0 -4 5 -5 10 -2
6 3 10 -1 10 -10 0 -9 4 -14 8 -11 5 3 21 -7 37 -22 16 -15 30 -25 30 -23 0 5
51 -26 72 -44 7 -5 19 -16 27 -22 8 -7 20 -13 26 -13 6 0 8 -5 5 -10 -4 -6 -2
-9 3 -8 13 4 92 -44 92 -55 0 -4 4 -6 8 -3 5 3 26 -10 47 -29 21 -19 44 -35
51 -35 8 0 14 -3 14 -7 0 -10 62 -47 73 -45 4 1 7 -2 7 -8 0 -5 26 -26 58 -46
31 -20 59 -41 60 -45 2 -5 8 -7 13 -3 5 3 9 0 9 -6 0 -6 5 -8 10 -5 6 3 10 1
10 -5 0 -6 4 -9 8 -6 5 3 15 -4 22 -15 8 -10 18 -19 23 -19 8 0 28 -15 84 -60
7 -6 19 -10 28 -10 8 0 15 -7 15 -16 0 -8 4 -13 9 -9 5 3 17 -5 25 -17 9 -12
16 -19 16 -15 0 5 15 -3 33 -17 19 -15 39 -26 45 -26 7 0 12 -4 12 -9 0 -10
39 -27 54 -23 5 2 6 -4 2 -13 -3 -9 -2 -13 4 -10 6 3 10 1 10 -6 0 -7 3 -10 6
-6 4 3 12 1 19 -6 7 -7 23 -19 35 -27 44 -30 72 -58 67 -67 -3 -5 4 -10 16
-10 12 -1 29 -11 38 -22 9 -11 19 -17 23 -14 6 6 10 -13 7 -31 -1 -5 4 -5 11
1 9 8 23 3 50 -17 21 -15 34 -31 30 -35 -4 -5 2 -5 12 -1 17 6 17 5 5 -10 -12
-15 -11 -16 11 -9 23 7 24 7 10 -10 -14 -16 -13 -17 8 -11 16 6 22 3 22 -8 0
-9 5 -16 11 -16 5 0 7 5 3 11 -4 8 0 8 15 0 11 -7 21 -14 21 -17 0 -3 -4 -3
-9 1 -5 3 -13 0 -17 -6 -4 -8 -3 -9 4 -5 7 4 12 3 12 -2 0 -6 8 -8 18 -5 12 3
23 -4 30 -19 9 -17 11 -17 7 -3 -4 14 4 9 27 -16 18 -19 27 -28 21 -19 -25 32
-13 31 17 -2 17 -18 30 -39 31 -48 0 -10 2 -11 6 -2 3 7 -1 19 -7 28 -11 12
-10 13 4 8 14 -5 20 -16 18 -35 -1 -4 9 -6 21 -5 14 1 23 -6 25 -19 5 -26 23
-37 38 -24 8 7 15 6 20 -2 4 -8 3 -9 -4 -5 -7 4 -12 2 -12 -3 0 -6 9 -11 19
-11 11 0 23 -5 27 -12 5 -7 3 -8 -6 -3 -9 5 -11 4 -6 -4 6 -8 12 -9 20 -2 14
11 26 5 26 -13 0 -6 -5 -4 -10 4 -7 12 -9 10 -7 -7 0 -12 4 -20 8 -17 4 2 11
0 14 -6 5 -8 11 -7 21 1 11 9 14 8 14 -5 0 -10 5 -14 10 -11 6 3 10 -2 10 -12
0 -15 2 -16 11 -3 9 12 10 11 6 -6 -3 -13 1 -21 9 -21 7 0 11 3 9 7 -2 3 5 6
15 6 13 0 16 -4 9 -12 -6 -8 -2 -10 16 -9 14 2 23 -1 19 -6 -3 -5 -9 -7 -14
-4 -5 3 -12 0 -16 -7 -4 -7 -4 -10 1 -6 4 4 14 3 22 -3 10 -9 17 -8 28 1 18
15 20 0 3 -20 -11 -13 -11 -13 2 -3 19 18 49 16 56 -2 4 -8 10 -12 15 -9 5 3
16 -2 25 -10 9 -9 20 -13 26 -10 6 4 9 3 6 -2 -6 -9 10 -29 27 -32 27 -6 63
-27 59 -34 -3 -4 4 -8 15 -8 12 0 21 -4 21 -9 0 -5 8 -8 18 -7 9 2 17 11 17
22 0 10 5 22 10 26 6 5 6 8 -1 8 -6 0 -11 7 -11 15 0 8 5 15 11 15 7 0 7 3 1
8 -15 11 -17 32 -2 32 9 0 9 2 -1 9 -17 11 -17 21 0 32 7 5 8 9 3 9 -12 0 -13
59 -2 77 4 6 3 15 -3 18 -8 5 -8 11 0 20 8 10 8 15 -1 20 -8 6 -7 10 2 16 8 5
9 9 4 9 -12 0 -13 69 -2 88 5 6 4 12 -1 12 -10 0 -9 30 2 48 4 6 3 12 -1 12
-9 0 -8 74 2 90 3 6 3 10 -2 10 -4 0 -8 14 -9 30 -1 17 3 30 7 30 5 0 4 11 -1
25 -6 15 -6 26 0 30 6 4 7 13 1 24 -6 10 -6 23 -1 31 5 9 5 19 -2 27 -8 10 -7
13 3 13 9 0 10 3 4 8 -12 8 -13 71 -2 90 5 6 4 12 0 12 -5 0 -9 9 -10 20 -1
11 2 18 8 15 5 -4 6 3 1 17 -9 27 -8 70 2 86 3 6 2 13 -2 16 -10 6 -8 48 2 65
4 5 3 12 -2 15 -10 6 -9 57 1 74 5 6 4 12 0 12 -5 0 -9 9 -10 20 -1 11 2 18 7
15 5 -3 5 7 1 22 -8 32 -7 65 3 81 3 6 3 13 -2 16 -10 6 -9 57 1 73 5 7 4 13
0 13 -5 0 -9 9 -10 20 -1 13 2 18 9 14 7 -5 8 -2 4 5 -12 19 -13 171 -1 171 6
0 7 3 0 8 -5 4 -10 21 -10 37 0 17 5 33 10 37 7 5 7 8 0 8 -6 0 -10 45 -10
115 0 70 4 115 10 115 7 0 7 3 0 8 -6 4 -10 39 -10 77 0 39 4 73 10 77 7 5 7
8 0 8 -5 0 -10 16 -10 35 0 19 5 35 10 35 7 0 7 3 0 8 -6 4 -10 55 -10 117 0
62 4 113 10 117 7 5 7 8 0 8 -5 0 -10 16 -10 35 0 19 5 35 10 35 7 0 7 3 0 8
-6 4 -10 55 -10 117 0 62 4 113 10 117 7 5 7 8 0 8 -13 0 -13 143 0 152 7 5 7
8 0 8 -5 0 -10 16 -10 35 0 19 5 35 10 35 7 0 7 3 0 8 -6 4 -10 55 -10 117 0
62 4 113 10 117 7 5 7 8 0 8 -6 0 -10 32 -10 75 0 43 4 75 10 75 7 0 7 3 0 8
-5 4 -10 21 -10 37 0 17 5 33 10 37 7 5 7 8 0 8 -6 0 -10 38 -10 95 0 57 4 95
10 95 7 0 7 3 0 8 -13 9 -13 85 0 94 7 5 6 8 -1 8 -13 0 -14 31 -1 48 5 6 6
12 1 12 -8 0 -11 144 -4 160 1 3 1 10 0 15 -8 34 -5 75 4 75 7 0 7 3 -1 8 -13
8 -13 29 0 50 5 6 5 12 0 12 -4 0 -8 43 -8 95 0 57 4 95 10 95 7 0 7 3 0 8 -5
4 -10 21 -10 37 0 17 5 33 10 37 7 5 7 8 0 8 -6 0 -10 32 -10 75 0 43 4 75 10
75 7 0 7 3 0 8 -6 4 -10 55 -10 117 0 62 4 113 10 117 7 5 7 8 0 8 -5 0 -10
16 -10 35 0 19 5 35 10 35 7 0 7 3 0 8 -6 4 -10 39 -10 77 0 39 4 73 10 77 7
5 7 8 0 8 -5 0 -10 18 -11 40 0 23 3 37 9 33 6 -4 7 -1 2 7 -12 19 -12 150 0
150 7 0 7 3 0 8 -5 4 -10 21 -10 37 0 17 5 33 10 37 7 5 7 8 0 8 -12 0 -13
169 -1 188 4 6 3 12 -1 12 -12 0 -10 84 2 92 6 5 5 8 -2 8 -13 0 -13 26 0 48
5 6 5 12 0 12 -10 0 -10 131 0 148 5 6 5 12 0 12 -10 0 -10 71 0 88 5 6 4 12
-1 12 -12 0 -12 32 1 48 5 6 6 12 1 12 -5 0 -9 43 -9 95 0 57 4 95 10 95 7 0
7 3 0 8 -6 4 -10 39 -10 77 0 39 4 73 10 77 7 5 7 8 0 8 -5 0 -10 16 -10 35 0
19 5 35 10 35 7 0 7 3 0 8 -6 4 -10 55 -10 117 0 62 4 113 10 117 7 5 6 8 0 8
-6 0 -11 16 -11 35 0 19 5 35 11 35 6 0 7 3 0 8 -5 4 -10 21 -10 37 0 17 5 33
10 37 7 5 7 8 0 8 -6 0 -10 32 -10 75 0 43 4 75 10 75 7 0 7 3 0 8 -5 4 -10
21 -10 37 0 17 5 33 10 37 7 5 7 8 0 8 -11 0 -13 219 -2 237 4 7 4 14 -1 17
-10 6 -9 77 1 94 5 6 5 12 0 12 -10 0 -10 71 0 88 5 6 4 12 -1 12 -12 0 -12
32 1 48 5 6 6 12 1 12 -11 0 -11 130 -1 148 5 6 5 12 0 12 -10 0 -10 71 0 88
5 6 4 12 -1 12 -12 0 -12 32 1 48 5 6 6 12 1 12 -5 0 -9 43 -9 95 0 57 4 95
10 95 7 0 7 3 0 8 -5 4 -10 21 -10 37 0 17 5 33 10 37 7 5 7 8 0 8 -6 0 -10
32 -10 75 0 43 4 75 10 75 7 0 7 3 0 8 -5 4 -10 21 -10 37 0 17 5 33 10 37 7
5 7 8 0 8 -13 0 -13 143 0 152 7 5 7 8 0 8 -5 0 -10 18 -11 40 0 23 3 37 9 33
6 -4 7 -1 2 7 -12 19 -12 150 0 150 7 0 7 3 0 8 -5 4 -10 21 -10 37 0 17 5 33
10 37 7 5 7 8 0 8 -6 0 -10 32 -10 75 0 43 4 75 10 75 7 0 7 3 0 8 -5 4 -10
21 -10 37 0 17 5 33 10 37 7 5 7 8 0 8 -12 0 -13 169 -2 188 5 6 5 12 0 12
-10 0 -10 71 0 88 5 6 4 12 -1 12 -12 0 -12 32 1 48 5 6 6 12 1 12 -11 0 -11
130 -1 148 5 6 4 12 0 12 -12 0 -10 84 2 92 6 5 6 8 -1 8 -13 0 -14 31 -1 48
5 6 6 12 1 12 -13 0 -11 103 1 112 6 5 7 8 0 8 -5 0 -10 18 -11 40 0 23 3 37
9 33 6 -4 7 -1 2 7 -12 19 -12 150 0 150 7 0 7 3 0 8 -12 9 -17 65 -5 57 5 -3
5 7 1 23 -5 16 -5 36 1 45 6 11 5 17 -2 17 -6 0 -8 5 -4 12 12 19 11 128 0
128 -7 0 -8 3 -1 8 12 8 15 152 3 152 -4 0 -3 11 2 24 5 13 6 27 3 30 -3 3 -8
50 -10 103 -5 127 -5 123 -17 123 -7 0 -7 3 -1 8 13 9 15 42 3 42 -6 0 -6 6 1
14 8 10 9 16 1 21 -5 3 -10 25 -10 49 0 23 -3 46 -7 50 -4 3 -8 23 -9 44 -3
49 -7 66 -19 74 -6 5 -5 8 4 8 9 0 10 4 4 13 -6 6 -11 19 -12 27 -1 21 -9 65
-11 65 -1 0 -4 11 -7 25 -6 33 -11 54 -13 60 -1 3 -2 8 -1 13 0 4 -3 7 -9 7
-5 0 -10 5 -10 11 0 5 6 7 13 3 8 -6 8 -3 -2 9 -7 9 -11 23 -8 31 3 8 -1 20
-8 26 -8 7 -13 16 -10 20 3 4 -2 21 -10 36 -8 16 -22 54 -32 84 -9 30 -22 58
-27 62 -7 5 -6 8 2 8 10 0 9 4 -2 16 -9 8 -14 19 -11 24 3 5 1 10 -5 12 -6 2
-12 14 -15 28 -3 14 -9 26 -15 28 -6 2 -8 8 -4 13 3 5 0 9 -5 9 -6 0 -10 4 -9
8 3 9 -43 104 -55 113 -4 3 -9 15 -10 27 0 11 -5 18 -9 16 -4 -3 -8 2 -8 10 0
9 -4 16 -9 16 -5 0 -11 8 -15 18 -7 23 -35 65 -63 97 -7 7 -13 16 -13 20 0 7
-19 30 -42 53 -10 9 -18 21 -18 26 0 5 -13 22 -30 37 -16 16 -26 29 -22 29 4
0 -5 11 -20 24 -16 13 -28 28 -28 35 0 6 -5 11 -11 11 -15 0 -39 26 -32 34 4
3 -1 6 -11 6 -9 0 -14 5 -11 10 3 6 1 10 -5 10 -7 0 -27 16 -46 35 -19 20 -34
33 -34 30 0 -3 -13 8 -30 25 -16 16 -32 30 -35 30 -3 0 -13 8 -23 18 -10 9
-29 24 -41 32 -21 14 -47 34 -77 59 -7 5 -14 7 -18 4 -3 -3 -8 2 -12 11 -3 9
-9 14 -14 11 -4 -2 -17 5 -28 16 -12 11 -22 17 -22 14 0 -4 -13 3 -29 14 -15
11 -31 18 -35 14 -3 -3 -6 -2 -6 3 0 5 -26 23 -58 39 -31 17 -59 33 -62 36 -5
6 -36 18 -45 19 -3 0 -18 6 -34 14 -16 9 -31 12 -35 9 -3 -4 -6 -1 -6 5 0 6
-13 13 -30 17 -16 4 -30 11 -30 16 0 5 -3 8 -7 8 -24 -4 -53 2 -49 10 4 5 -5
8 -19 6 -14 -1 -25 2 -25 6 0 5 -3 8 -7 7 -5 0 -16 2 -25 6 -10 4 -23 6 -30 4
-7 -3 -19 2 -27 9 -7 8 -20 12 -28 9 -8 -4 -20 -3 -26 1 -13 8 -29 12 -72 18
-16 2 -31 5 -32 6 -2 1 -6 2 -10 3 -5 1 -14 5 -22 10 -8 5 -16 4 -21 -4 -6 -9
-9 -9 -15 -1 -5 9 -10 9 -21 0 -11 -9 -15 -8 -20 5 -5 12 -10 14 -19 6 -9 -7
-15 -8 -19 -1 -4 6 -13 8 -21 5 -8 -4 -28 -1 -44 4 -20 7 -32 7 -40 -1 -9 -9
-14 -8 -21 3 -8 12 -10 12 -10 1 0 -10 -3 -11 -14 -2 -10 9 -16 9 -21 1 -5 -7
-11 -8 -19 -1 -7 6 -17 6 -26 1 -9 -6 -20 -4 -29 3 -12 10 -13 9 -7 -1z m-237
-1217 c13 0 23 2 23 5 0 7 66 4 79 -5 6 -3 11 0 11 7 0 10 2 10 9 -1 6 -9 11
-10 15 -2 4 6 15 7 29 2 12 -4 28 -6 36 -3 7 2 17 -2 22 -9 7 -12 9 -12 9 0 0
11 3 11 17 0 15 -12 16 -12 8 1 -7 12 -6 13 6 4 8 -5 32 -12 54 -13 22 -2 42
-6 45 -11 3 -4 12 -6 20 -5 8 1 26 -2 40 -8 14 -5 33 -9 43 -8 9 1 17 -2 17
-8 0 -6 7 -7 17 -4 10 4 14 2 9 -5 -4 -6 1 -10 13 -9 20 1 113 -42 119 -55 2
-5 11 -8 21 -8 9 0 27 -9 39 -20 12 -11 28 -20 37 -20 9 0 14 -4 11 -9 -6 -9
31 -25 49 -21 6 1 7 -2 3 -6 -4 -4 10 -20 32 -36 22 -17 40 -34 40 -39 0 -5 7
-9 16 -9 8 0 12 -4 9 -10 -3 -5 0 -10 8 -10 7 0 20 -11 27 -25 7 -13 17 -22
22 -19 4 3 8 1 8 -4 0 -5 12 -21 26 -36 15 -14 23 -26 19 -26 -5 0 2 -8 13
-19 12 -10 19 -21 15 -25 -3 -3 1 -6 11 -6 9 0 15 -4 12 -8 -3 -5 6 -20 20
-35 14 -15 21 -27 17 -27 -4 0 -3 -4 3 -8 11 -7 45 -67 44 -77 0 -3 9 -15 19
-27 11 -11 18 -25 15 -30 -3 -4 0 -8 6 -8 6 0 8 -4 5 -10 -3 -5 -1 -10 6 -10
7 0 10 -3 6 -6 -3 -4 5 -26 18 -50 14 -24 22 -44 19 -44 -4 0 -1 -7 6 -15 7
-8 9 -15 4 -15 -4 0 -3 -5 3 -11 6 -6 9 -18 6 -25 -3 -8 2 -17 11 -20 12 -5
14 -10 6 -19 -7 -9 -6 -16 4 -24 8 -7 13 -20 11 -29 -1 -9 2 -19 6 -22 5 -3 9
-20 11 -38 1 -18 6 -32 10 -32 4 0 7 -3 7 -7 -1 -5 0 -10 1 -13 2 -6 7 -44 14
-110 3 -25 6 -47 7 -50 1 -3 1 -8 0 -12 0 -5 4 -8 9 -8 7 0 7 -6 1 -18 -7 -13
-7 -22 0 -29 5 -5 11 -35 12 -66 1 -32 5 -57 8 -57 3 0 6 -7 6 -15 0 -8 -5
-15 -11 -15 -7 0 -7 -3 -1 -8 15 -11 14 -64 -2 -58 -8 3 -10 -1 -6 -11 4 -11
2 -14 -5 -9 -18 11 -14 0 5 -15 14 -12 16 -12 8 0 -5 9 -4 12 3 7 6 -4 9 -13
6 -21 -4 -8 -10 -12 -15 -10 -4 3 -2 -15 5 -40 9 -29 11 -47 4 -51 -6 -4 -6
-9 2 -14 9 -6 9 -12 0 -30 -9 -17 -9 -21 0 -15 9 6 9 2 1 -14 -7 -11 -8 -21
-3 -21 5 0 9 -7 9 -15 0 -8 -4 -12 -8 -9 -4 2 -7 -5 -6 -16 1 -11 5 -20 10
-20 4 0 5 -5 2 -10 -4 -6 -11 -7 -17 -4 -7 5 -8 2 -2 -7 14 -24 16 -51 2 -43
-8 5 -7 1 2 -10 12 -16 12 -19 -4 -28 -14 -8 -15 -12 -5 -25 10 -11 10 -19 1
-34 -9 -14 -9 -19 -1 -19 8 0 7 -6 -2 -17 -12 -14 -12 -16 1 -9 8 4 4 -2 -10
-15 l-25 -22 25 8 c22 7 23 6 11 -9 -7 -9 -10 -16 -6 -16 4 0 2 -7 -5 -15 -10
-12 -10 -15 1 -15 8 0 5 -6 -7 -15 -10 -8 -14 -15 -8 -15 12 0 12 -49 0 -68
-4 -7 -4 -16 -1 -22 3 -5 0 -10 -7 -10 -9 0 -9 -3 2 -10 9 -6 11 -10 3 -10 -7
0 -10 -6 -7 -14 3 -8 0 -24 -6 -36 -10 -18 -10 -21 2 -14 11 6 11 5 -1 -9 -7
-9 -10 -17 -6 -17 4 0 1 -8 -6 -17 -10 -11 -10 -14 -1 -9 6 4 12 2 12 -3 0 -6
-4 -11 -9 -11 -6 0 -8 -9 -6 -20 2 -11 0 -22 -5 -25 -5 -3 -6 -13 -3 -22 4
-11 3 -14 -5 -9 -8 4 -10 2 -6 -8 3 -8 1 -24 -6 -35 -8 -16 -8 -21 2 -21 9 0
9 -3 -2 -10 -8 -5 -11 -10 -7 -10 5 0 5 -6 0 -12 -8 -13 -9 -18 -12 -39 0 -5
-7 -7 -13 -3 -10 5 -10 4 -1 -6 9 -10 9 -21 -2 -48 -8 -19 -12 -38 -9 -43 3
-5 1 -9 -3 -9 -5 0 -9 -10 -10 -22 -1 -11 -7 -24 -13 -28 -7 -4 -11 -11 -11
-16 2 -27 -13 -84 -21 -84 -6 0 -8 -7 -4 -15 3 -8 1 -15 -5 -15 -6 0 -7 -5 -4
-10 3 -6 -2 -22 -13 -38 -11 -15 -17 -33 -15 -39 3 -7 0 -13 -6 -13 -5 0 -8
-9 -6 -19 2 -11 -3 -25 -11 -31 -7 -7 -11 -16 -9 -21 3 -4 -3 -12 -12 -18 -14
-8 -15 -10 -3 -11 13 0 13 -1 0 -10 -8 -5 -12 -10 -8 -10 3 0 -7 -25 -22 -55
-15 -30 -23 -52 -17 -49 7 3 4 -1 -6 -9 -10 -9 -18 -18 -18 -21 3 -20 0 -26
-9 -21 -6 3 -7 -1 -4 -9 3 -9 2 -16 -3 -16 -5 0 -9 -10 -10 -22 -1 -11 -8 -25
-15 -29 -7 -5 -9 -9 -5 -9 5 0 1 -7 -7 -16 -9 -8 -14 -20 -11 -25 4 -5 1 -9
-5 -9 -7 0 -9 -7 -6 -16 3 -8 2 -12 -4 -9 -6 3 -10 -1 -10 -10 0 -9 -9 -29
-20 -45 -11 -15 -17 -30 -13 -34 3 -3 1 -6 -5 -6 -7 0 -12 -7 -12 -15 0 -8 -5
-15 -12 -15 -6 0 -8 -3 -5 -7 4 -3 0 -15 -10 -25 -9 -10 -13 -18 -9 -18 4 0
-2 -10 -14 -22 -11 -12 -19 -27 -17 -32 2 -5 -5 -18 -15 -28 -10 -10 -16 -23
-13 -28 4 -6 1 -10 -5 -10 -6 0 -18 -16 -26 -35 -8 -19 -17 -35 -20 -35 -3 0
-2 6 2 13 4 6 4 9 0 5 -4 -3 -8 -10 -8 -15 0 -4 -4 -14 -10 -20 -6 -7 -7 -13
-4 -13 6 0 -2 -11 -31 -44 -7 -8 -15 -25 -19 -40 -3 -14 -10 -24 -15 -21 -4 3
-13 -4 -19 -15 -6 -11 -8 -20 -5 -20 3 0 -4 -9 -15 -20 -12 -12 -18 -25 -15
-30 4 -6 -1 -10 -9 -10 -8 0 -18 -9 -21 -20 -3 -11 -11 -20 -17 -20 -6 0 -9
-3 -5 -6 5 -6 0 -15 -31 -49 -7 -8 -10 -15 -5 -15 4 0 -3 -7 -15 -16 -12 -8
-22 -22 -22 -30 0 -8 -5 -14 -12 -14 -6 0 -9 -3 -5 -6 3 -3 -5 -16 -19 -29
-13 -12 -24 -27 -24 -33 0 -6 -9 -16 -20 -22 -11 -6 -18 -15 -15 -20 3 -5 -4
-11 -15 -15 -11 -4 -18 -11 -15 -16 4 -5 -1 -12 -9 -15 -9 -3 -13 -10 -10 -15
3 -5 -5 -13 -18 -18 -13 -6 -19 -10 -15 -10 10 -1 -4 -17 -69 -85 -29 -30 -60
-65 -69 -80 -9 -14 -21 -24 -25 -21 -5 3 -11 -4 -15 -15 -3 -11 -13 -20 -21
-20 -8 0 -13 -3 -11 -8 1 -4 -9 -18 -23 -32 -14 -14 -28 -24 -32 -23 -5 2 -8
-1 -8 -5 0 -14 -36 -52 -43 -46 -3 3 -8 -4 -12 -15 -3 -12 -10 -19 -15 -16 -4
3 -11 -2 -14 -11 -3 -9 -11 -12 -18 -8 -7 4 -10 4 -6 -1 10 -11 -41 -57 -54
-49 -6 4 -9 1 -6 -7 3 -8 -11 -23 -34 -37 -22 -13 -35 -28 -32 -34 4 -7 2 -8
-5 -4 -6 4 -14 0 -17 -8 -3 -9 -10 -14 -15 -11 -4 3 -13 -4 -19 -15 -6 -11
-15 -18 -21 -15 -5 4 -12 -1 -15 -10 -4 -9 -13 -14 -20 -11 -8 3 -11 0 -7 -10
3 -8 2 -14 -3 -13 -21 4 -35 -2 -29 -11 3 -5 1 -10 -5 -10 -19 0 -110 -66
-102 -75 4 -4 -5 -6 -20 -3 -17 3 -26 1 -25 -6 1 -6 -4 -10 -10 -9 -7 2 -13
-4 -13 -12 0 -8 -9 -15 -20 -15 -11 0 -20 -4 -20 -9 0 -5 -13 -14 -30 -21 -16
-7 -30 -17 -30 -22 0 -5 -4 -6 -10 -3 -5 3 -10 2 -10 -4 0 -6 -7 -7 -17 -4
-10 4 -14 2 -10 -4 4 -6 -4 -14 -18 -17 -14 -4 -24 -10 -21 -15 3 -4 -1 -8 -9
-8 -8 0 -11 5 -8 11 4 6 -3 3 -14 -6 -11 -10 -25 -18 -31 -18 -7 0 -12 -5 -12
-11 0 -5 -4 -7 -10 -4 -5 3 -10 1 -10 -4 0 -6 -3 -10 -7 -9 -5 1 -21 -5 -38
-12 -16 -7 -33 -13 -37 -12 -5 1 -8 -3 -8 -9 0 -5 -4 -8 -9 -4 -5 3 -13 0 -16
-6 -4 -5 -13 -8 -21 -5 -8 3 -13 0 -11 -6 1 -5 -7 -12 -17 -14 -10 -1 -22 -7
-25 -12 -3 -5 -14 -8 -23 -6 -10 1 -18 -2 -18 -7 0 -5 -7 -9 -16 -9 -9 0 -12
-5 -8 -12 4 -7 4 -10 -1 -6 -4 4 -15 2 -23 -5 -13 -10 -15 -9 -8 3 4 8 0 6 -8
-4 -11 -14 -16 -15 -16 -6 0 9 -5 7 -15 -6 -8 -10 -15 -16 -15 -12 0 4 -9 0
-20 -9 -10 -9 -29 -18 -42 -20 -13 -2 -25 -8 -26 -13 -2 -6 -9 -7 -14 -4 -6 4
-17 -1 -25 -11 -9 -14 -13 -15 -13 -4 0 9 -3 10 -8 3 -11 -17 -71 -46 -82 -39
-6 4 -13 -1 -16 -9 -3 -9 -15 -16 -25 -16 -10 0 -19 -4 -19 -10 0 -5 -7 -10
-16 -10 -9 0 -30 -10 -47 -22 -17 -12 -27 -17 -23 -10 12 20 -9 13 -23 -7 -8
-11 -23 -18 -33 -16 -10 2 -16 0 -13 -6 4 -5 -3 -9 -14 -9 -12 0 -21 -5 -21
-11 0 -5 -4 -8 -9 -4 -5 3 -13 0 -16 -6 -4 -5 -13 -8 -20 -5 -7 2 -16 -2 -19
-11 -4 -8 -13 -13 -21 -9 -8 3 -15 1 -15 -4 0 -8 -41 -26 -49 -21 -2 2 -7 -2
-11 -9 -4 -6 -17 -12 -28 -13 -12 -1 -22 -5 -22 -9 0 -4 -7 -8 -16 -8 -9 0
-12 -5 -8 -12 4 -6 3 -9 -2 -5 -5 3 -24 -1 -42 -8 -18 -8 -36 -15 -40 -16 -4
-1 -19 -10 -34 -21 -16 -10 -32 -16 -38 -13 -5 3 -10 1 -10 -4 0 -6 -8 -11
-19 -11 -10 0 -24 -7 -31 -15 -7 -8 -16 -13 -20 -10 -5 3 -10 1 -12 -5 -1 -5
-15 -11 -30 -12 -15 -1 -25 -4 -23 -7 5 -5 -26 -30 -38 -31 -5 0 -5 6 -1 13 5
8 3 8 -9 -2 -9 -7 -15 -17 -12 -21 3 -5 -5 -6 -17 -2 -14 3 -19 1 -14 -6 5 -8
2 -10 -8 -6 -10 4 -16 1 -16 -7 0 -7 -3 -9 -7 -6 -3 4 -12 2 -19 -4 -8 -6 -21
-9 -29 -5 -9 3 -13 2 -10 -4 5 -9 -72 -50 -94 -50 -6 0 -20 -10 -31 -22 -20
-21 -21 -21 -15 -3 6 16 3 16 -14 -5 -14 -17 -21 -20 -21 -10 -1 13 -2 13 -13
-1 -12 -16 -18 -19 -38 -19 -5 0 -7 -4 -4 -10 3 -5 0 -7 -8 -4 -8 3 -18 0 -22
-5 -3 -6 -11 -9 -16 -6 -5 4 -9 1 -9 -5 0 -7 -7 -10 -15 -6 -8 3 -15 1 -15 -4
0 -6 -7 -10 -15 -10 -8 0 -15 -5 -15 -11 0 -5 -4 -7 -10 -4 -5 3 -10 1 -10 -4
0 -6 -3 -10 -7 -9 -10 3 -57 -13 -63 -21 -3 -3 -16 -12 -29 -19 -19 -11 -22
-11 -15 0 4 7 -2 5 -14 -5 -11 -11 -25 -16 -31 -13 -5 4 -14 -1 -19 -9 -5 -9
-17 -18 -28 -20 -10 -2 -20 -4 -21 -4 -2 -1 -4 0 -6 2 -2 1 -12 -6 -21 -16
-10 -10 -31 -21 -47 -24 -16 -3 -29 -9 -29 -12 0 -7 -72 -36 -79 -32 -2 2 -7
-2 -11 -9 -4 -6 -16 -12 -28 -13 -11 0 -18 -5 -16 -9 5 -7 -18 -12 -38 -9 -5
0 -8 -3 -8 -8 0 -8 -37 -24 -52 -22 -5 1 -8 -4 -8 -11 0 -6 -3 -8 -6 -5 -4 4
-19 -2 -33 -11 -27 -19 -75 -27 -66 -11 4 5 -1 9 -10 9 -8 0 -18 7 -21 15 -4
8 -10 12 -15 9 -5 -3 -12 2 -15 10 -3 9 -10 13 -15 10 -5 -3 -9 0 -9 5 0 6 -6
11 -14 11 -7 0 -25 11 -40 25 -14 13 -26 21 -26 17 -1 -4 -8 2 -18 13 -17 21
-50 40 -64 37 -5 -1 -8 4 -8 12 0 8 -10 16 -23 20 -13 3 -36 17 -51 31 -15 14
-32 22 -38 19 -6 -4 -8 -3 -5 3 6 10 -52 50 -66 45 -5 -1 -6 1 -3 6 3 5 -7 15
-21 21 -15 7 -43 25 -63 41 -21 16 -40 27 -44 23 -3 -3 -6 1 -6 10 0 10 -8 17
-20 17 -11 0 -20 4 -20 9 0 5 -8 12 -19 16 -10 3 -31 17 -47 30 -16 14 -34 25
-40 25 -7 0 -14 7 -18 15 -3 8 -11 15 -18 15 -7 0 -25 10 -38 23 -14 12 -32
23 -40 25 -8 2 -17 7 -20 10 -3 4 -22 18 -42 32 -21 14 -38 28 -38 33 0 4 -7
7 -15 7 -8 0 -15 5 -15 10 0 6 -6 10 -14 10 -8 0 -21 6 -29 14 -7 8 -31 24
-53 35 -21 12 -34 21 -29 21 5 0 -2 8 -15 17 -14 10 -28 17 -32 15 -5 -1 -8 2
-8 8 0 5 -7 10 -15 10 -8 0 -15 4 -15 9 0 5 -13 14 -30 21 -16 7 -30 16 -30
21 0 5 -5 9 -11 9 -6 0 -16 6 -24 13 -32 30 -54 45 -59 40 -3 -4 -6 -1 -6 5 0
7 -4 12 -10 12 -11 0 -113 71 -118 82 -2 5 -8 8 -13 8 -10 0 -63 35 -87 58 -8
7 -18 9 -24 6 -7 -4 -8 -2 -4 4 4 7 1 12 -8 12 -9 0 -16 5 -16 10 0 6 -6 10
-13 10 -8 0 -22 10 -33 22 -10 12 -13 18 -6 14 6 -4 12 -3 12 1 0 5 9 14 21
21 12 8 18 9 14 3 -3 -6 -1 -11 4 -11 6 0 11 4 11 8 0 9 70 42 88 42 7 0 12 5
12 11 0 6 9 9 20 6 11 -3 17 -1 14 4 -3 5 1 11 8 13 7 2 22 7 33 11 11 3 21 5
23 3 2 -2 8 5 13 14 5 10 16 15 24 12 8 -4 15 -1 15 6 0 6 5 8 10 5 6 -3 10
-1 10 5 0 6 5 8 10 5 6 -3 10 -1 10 5 0 6 4 9 9 5 5 -3 12 -1 16 5 4 6 11 8
16 5 5 -4 9 -1 9 5 0 6 5 8 10 5 6 -3 10 -2 10 3 0 9 69 39 82 34 4 -1 8 2 8
8 0 5 9 10 20 10 11 0 20 5 20 11 0 5 4 8 9 5 5 -3 11 1 15 9 3 8 12 12 21 9
8 -3 15 -1 15 5 0 6 3 10 7 9 5 -1 18 3 31 10 12 7 22 10 22 7 0 -4 7 1 16 9
8 9 20 14 25 11 5 -4 9 -1 9 5 0 6 4 9 9 5 6 -3 14 3 20 12 7 13 10 14 11 4 0
-10 8 -7 27 10 14 13 22 17 18 10 -5 -9 4 -6 22 7 17 12 33 19 37 15 3 -3 6
-1 6 6 0 8 7 11 15 7 10 -3 15 1 15 11 0 13 3 14 12 5 9 -9 14 -8 22 4 7 8 20
17 31 18 11 2 19 9 18 14 -2 6 3 9 11 6 7 -3 21 2 29 11 9 9 19 16 21 16 21 2
46 13 46 19 0 4 11 11 25 14 14 4 25 11 25 16 0 5 7 7 15 4 8 -4 15 -1 15 5 0
6 7 11 15 11 9 0 18 7 21 15 4 8 10 13 14 10 5 -3 15 1 23 9 8 8 17 12 21 9 3
-4 6 -1 6 5 0 7 9 12 21 12 11 0 17 5 14 10 -3 6 0 10 8 10 7 0 23 9 35 20 12
12 22 17 22 13 0 -4 7 2 16 13 8 10 12 12 8 4 -4 -8 3 -5 15 8 12 12 27 20 32
16 5 -3 8 -2 7 3 -2 4 2 10 7 12 6 3 21 15 34 27 14 13 28 21 33 18 4 -3 8 2
8 11 0 11 5 15 15 11 9 -3 15 0 15 10 0 10 6 14 15 10 8 -3 14 0 12 7 -1 7 3
11 10 10 6 -2 15 6 18 17 4 11 10 18 15 15 5 -3 14 4 20 15 6 11 15 18 21 15
5 -4 9 2 9 11 0 10 3 14 7 11 3 -4 16 5 29 18 13 14 28 25 34 25 5 0 10 6 10
14 0 8 5 18 12 22 7 5 8 3 3 -6 -5 -8 17 11 48 42 31 31 57 61 57 68 0 6 5 8
10 5 6 -3 13 1 16 9 3 9 11 13 17 9 6 -4 8 0 4 10 -4 11 -1 17 9 17 8 0 13 4
9 9 -3 5 4 12 15 16 11 3 19 9 19 13 -1 4 -1 14 0 22 1 13 2 13 11 0 8 -13 10
-12 10 3 0 9 5 17 10 17 6 0 10 5 10 10 0 14 43 56 53 52 5 -1 6 2 2 8 -4 6 4
19 17 30 13 11 20 19 16 20 -4 0 6 14 22 32 16 17 27 35 24 40 -3 4 2 8 11 8
9 0 13 5 10 11 -4 5 5 21 18 33 14 13 23 27 20 30 -4 3 -1 6 6 6 7 0 10 4 7 9
-3 5 1 12 10 15 8 3 12 10 9 16 -3 5 -1 10 4 10 6 0 11 7 11 15 0 9 7 18 16
22 8 3 13 12 10 19 -3 8 -1 14 4 14 6 0 9 4 7 9 -1 5 7 17 18 26 11 9 13 13 5
9 -11 -5 -10 -2 3 13 10 11 19 30 20 41 1 13 6 18 16 14 8 -3 12 -1 8 5 -3 5
5 31 19 57 14 25 22 51 19 56 -4 6 1 13 9 16 9 3 16 14 16 24 0 10 7 25 15 33
8 8 11 17 8 21 -4 3 -1 6 4 6 6 0 10 11 9 24 -2 15 3 27 12 31 12 4 12 8 1 21
-10 12 -10 15 2 12 8 -2 13 3 12 10 -2 6 2 12 8 12 5 0 7 5 4 10 -3 6 -1 10 6
10 6 0 9 8 6 20 -3 11 -1 20 5 20 5 0 7 4 3 9 -3 5 2 17 11 25 10 10 11 16 3
16 -8 0 -9 3 0 13 6 8 8 17 4 20 -3 4 0 7 7 7 7 0 10 3 7 7 -4 3 -1 13 6 21
10 13 9 14 -3 7 -12 -6 -12 -5 -3 5 6 7 9 19 6 27 -3 7 -2 13 3 12 21 -4 26 2
14 16 -9 11 -9 15 -1 15 7 0 9 5 6 10 -3 6 -3 10 2 10 7 0 11 18 13 73 1 9 6
17 11 17 6 0 7 5 4 10 -4 6 -1 17 5 25 10 12 10 15 -1 15 -9 0 -10 3 -4 8 6 4
11 13 13 20 4 20 12 74 15 99 2 12 6 25 9 28 4 4 4 18 2 31 -2 13 -1 24 3 24
5 0 9 17 10 38 4 68 8 87 18 94 6 5 6 8 -2 8 -8 0 -9 9 -4 28 4 15 7 46 7 70
-1 23 2 42 7 42 4 0 5 5 1 11 -3 6 0 15 7 20 8 5 9 9 3 9 -7 0 -10 13 -7 33 5
45 5 48 0 85 -2 18 -1 35 3 37 9 6 8 25 -3 42 -4 6 -3 14 2 17 11 7 11 55 -1
62 -5 3 -4 12 3 20 6 8 9 17 6 21 -4 3 -1 13 6 21 10 13 9 14 -2 7 -11 -6 -13
-3 -8 15 3 13 1 31 -6 39 -10 12 -9 13 2 6 11 -6 13 -4 7 11 -9 22 -10 30 -2
62 2 12 1 22 -4 22 -6 0 -6 10 0 25 5 14 6 25 1 25 -10 0 -9 19 2 37 4 6 1 13
-5 16 -10 3 -10 9 0 27 8 12 9 19 3 16 -5 -4 -12 -2 -16 4 -3 5 -1 10 6 10 8
0 9 3 0 13 -6 8 -8 17 -4 20 3 4 0 14 -8 24 -9 11 -10 14 -1 9 6 -4 12 -2 12
3 0 6 -6 11 -12 12 -10 0 -10 2 0 6 6 2 9 10 5 16 -6 10 -14 63 -14 99 0 10
-5 20 -10 24 -6 3 -5 12 3 22 9 10 9 13 1 9 -7 -5 -12 -1 -12 10 -2 54 -6 73
-14 73 -5 0 -7 9 -4 20 3 11 1 20 -4 20 -4 0 -6 7 -3 15 4 9 0 15 -7 15 -11 0
-11 2 1 10 12 8 12 10 -3 16 -9 3 -17 10 -17 16 0 5 4 6 10 3 6 -3 7 1 4 9 -3
9 -10 16 -14 16 -5 0 -7 9 -5 20 2 11 -1 20 -6 20 -6 0 -7 5 -4 10 3 6 1 10
-5 10 -6 0 -9 4 -6 8 3 5 -2 21 -10 36 -19 38 -18 46 6 46 11 0 20 5 20 11 0
8 4 8 14 0 11 -9 16 -9 22 0 4 8 3 9 -4 5 -7 -4 -12 -5 -12 -2 0 9 62 36 71
30 5 -3 9 0 9 6 0 7 7 9 16 6 8 -3 12 -2 9 4 -6 9 8 14 28 11 4 0 7 4 7 10 0
6 7 9 15 6 8 -4 17 -1 21 5 5 7 2 8 -6 3 -9 -5 -11 -4 -6 4 4 6 12 9 17 6 13
-8 51 20 41 31 -4 4 1 2 11 -5 12 -10 17 -10 17 -2 0 7 5 9 10 6 6 -3 13 1 16
9 3 9 10 13 15 10 5 -3 9 -1 9 5 0 6 7 8 15 5 8 -4 15 -1 15 6 0 6 4 9 9 5 5
-3 17 2 25 11 9 8 16 12 16 7 0 -4 5 -1 10 7 7 11 10 11 10 2 0 -7 5 -10 10
-7 6 4 7 11 4 17 -5 8 -1 9 10 5 10 -4 19 -1 22 8 3 7 11 12 19 9 7 -3 19 2
28 10 8 8 18 12 22 8 3 -4 13 2 21 12 8 11 14 17 14 13 0 -4 10 -2 23 5 12 7
25 12 29 13 3 0 10 3 14 8 4 4 16 7 26 7 10 0 21 7 24 15 4 8 10 15 16 15 5 0
6 -6 3 -12 -4 -7 0 -5 8 5 8 9 19 17 25 17 6 0 27 9 46 21 20 12 36 17 36 13
0 -4 7 1 16 12 8 10 13 13 9 7 -4 -9 -1 -11 9 -7 9 3 16 10 16 15 0 5 9 9 20
9 10 0 24 8 29 18 7 10 11 12 11 4 0 -9 8 -7 29 7 15 11 31 18 35 14 3 -3 6
-1 6 6 0 7 5 9 10 6 6 -3 13 1 16 9 3 9 10 14 14 11 9 -6 62 20 55 27 -3 2 2
5 10 5 8 0 15 -5 15 -11 0 -6 7 0 16 13 11 15 23 21 35 18 11 -3 17 -1 13 4
-3 5 0 9 7 9 6 0 18 8 25 18 13 16 14 16 8 -3 -5 -19 -5 -19 9 -2 8 9 22 17
31 17 10 0 14 4 11 10 -3 6 1 7 9 4 9 -3 16 -1 16 6 0 6 5 8 10 5 6 -3 10 -1
10 5 0 6 5 8 10 5 6 -3 10 -1 10 4 0 6 3 10 8 10 24 -4 42 2 36 13 -5 8 -2 9
9 5 10 -3 17 -2 17 4 0 6 4 8 9 4 5 -3 16 1 24 9 8 8 17 12 21 9 3 -4 6 -1 6
5 0 7 5 12 11 12 5 0 7 -6 3 -12 -9 -15 24 9 44 32 8 9 11 10 7 2 -6 -11 -3
-11 16 0 13 7 27 17 30 22 4 5 12 5 18 2 6 -4 11 -2 11 4 0 6 4 9 8 6 5 -3 18
3 28 13 11 9 25 16 32 13 6 -2 12 1 12 8 0 6 4 9 9 5 5 -3 13 0 16 6 4 5 13 8
21 5 8 -3 13 0 11 6 -1 7 3 13 8 13 31 4 65 19 65 28 0 6 3 7 7 4 3 -4 13 -1
21 6 13 10 15 9 8 -3 -6 -12 -4 -11 6 1 7 9 19 14 26 12 6 -3 12 0 12 7 0 6 4
9 9 5 5 -3 12 -1 16 5 4 6 11 7 17 4 6 -4 17 1 25 11 7 11 13 13 13 7 0 -7 5
-12 11 -12 5 0 8 4 5 9 -4 5 12 12 34 16 22 4 42 11 46 16 3 5 10 9 15 9 6 0
7 -5 3 -11 -3 -6 5 -3 20 6 14 10 26 13 26 9 0 -5 5 -2 10 6 9 13 10 13 10 0
1 -12 2 -12 10 2 6 10 18 14 30 11 11 -3 28 1 37 8 11 10 14 10 9 2 -5 -10 -1
-11 17 -4 14 6 28 7 31 4 3 -4 6 -1 6 5 0 6 6 9 14 6 8 -3 17 0 21 6 5 8 10 8
20 0 10 -8 15 -8 20 1 6 8 10 7 16 -2 7 -11 9 -11 9 -1 0 7 4 11 9 7 5 -3 12
-1 16 5 4 6 11 7 18 3 6 -4 21 -7 34 -8z m-3717 -1665 c0 -3 19 -7 43 -8 62
-4 67 -5 61 -14 -3 -4 2 -8 11 -8 16 0 41 -23 87 -79 10 -12 15 -21 12 -21 -3
0 4 -16 16 -35 12 -19 18 -35 13 -35 -4 0 -2 -4 4 -8 7 -5 14 -20 15 -35 1
-15 6 -27 11 -27 5 0 7 -9 4 -20 -3 -11 0 -26 6 -33 7 -6 12 -21 11 -32 0 -11
4 -28 9 -39 7 -13 6 -16 -3 -11 -9 6 -9 3 -1 -12 6 -11 8 -23 5 -26 -3 -3 -2
-12 2 -19 12 -18 12 -48 1 -48 -5 0 -4 -7 4 -16 10 -13 10 -19 0 -36 -10 -15
-10 -18 0 -12 9 5 11 1 7 -14 -4 -13 -1 -22 5 -23 9 0 9 -2 1 -5 -7 -3 -9 -14
-6 -26 4 -16 2 -19 -9 -13 -11 7 -12 6 -3 -6 15 -19 25 -61 13 -53 -6 3 -7 -5
-3 -22 6 -21 4 -25 -7 -19 -12 8 -12 6 0 -8 8 -10 10 -24 6 -34 -12 -27 -13
-53 -3 -53 5 0 6 -6 1 -12 -4 -7 -9 -24 -10 -38 -5 -75 -16 -139 -24 -155 -3
-5 -4 -20 -3 -32 0 -13 -2 -23 -6 -23 -4 0 -7 -6 -7 -12 -1 -12 -8 -49 -18
-88 -2 -8 -4 -19 -4 -23 -1 -5 -5 -6 -10 -3 -4 3 -7 -6 -5 -19 1 -14 -2 -25
-7 -25 -6 0 -7 -5 -3 -12 4 -6 -1 -17 -11 -25 -13 -9 -14 -13 -5 -13 9 0 8 -4
-5 -13 -10 -8 -15 -19 -11 -25 4 -7 2 -12 -3 -12 -6 0 -10 -3 -9 -7 2 -15 -43
-103 -53 -103 -6 0 -8 -4 -5 -9 3 -4 -3 -19 -14 -31 -11 -13 -20 -29 -20 -37
0 -7 -4 -13 -9 -13 -5 0 -13 -9 -16 -20 -4 -11 -17 -31 -29 -44 -13 -12 -29
-32 -35 -45 -7 -12 -17 -18 -23 -15 -7 4 -8 3 -4 -4 4 -7 2 -12 -3 -12 -6 0
-10 -3 -9 -7 2 -5 -7 -18 -19 -30 -13 -13 -23 -20 -23 -15 0 4 -10 -8 -21 -25
-12 -18 -28 -33 -36 -33 -8 0 -11 -4 -8 -10 3 -5 3 -10 -2 -10 -4 0 -23 -14
-42 -30 -18 -16 -38 -27 -44 -23 -5 3 -7 2 -4 -4 7 -11 -28 -45 -37 -36 -3 4
-6 1 -6 -5 0 -7 -9 -12 -19 -12 -10 0 -22 -7 -25 -16 -3 -8 -11 -12 -16 -9 -6
4 -9 3 -8 -2 2 -4 0 -8 -3 -8 -3 0 -13 -8 -23 -18 -10 -9 -21 -15 -26 -12 -4
3 -10 -2 -14 -10 -3 -8 -12 -15 -21 -15 -8 0 -15 -4 -15 -9 0 -8 -32 -22 -55
-25 -5 -1 -14 -7 -18 -13 -4 -7 -17 -13 -27 -13 -11 0 -20 -5 -20 -11 0 -5 -4
-7 -10 -4 -5 3 -10 1 -10 -5 0 -6 -4 -8 -10 -5 -5 3 -10 1 -10 -4 0 -6 -3 -10
-7 -9 -5 1 -18 -3 -29 -10 -12 -6 -24 -8 -28 -5 -3 3 -6 1 -6 -6 0 -7 -4 -10
-9 -7 -5 4 -11 2 -13 -4 -2 -6 -14 -12 -27 -15 -14 -2 -28 -10 -33 -17 -4 -7
-8 -10 -8 -5 0 4 -13 1 -30 -8 -16 -8 -32 -14 -34 -13 -3 2 -12 -6 -20 -17
-12 -15 -16 -16 -16 -5 -1 13 -2 13 -13 -1 -7 -9 -16 -17 -22 -18 -24 -3 -45
-13 -45 -19 0 -4 -20 -14 -45 -21 -25 -7 -45 -17 -45 -23 0 -5 -4 -6 -10 -3
-5 3 -10 1 -10 -4 0 -6 -11 -11 -25 -11 -14 0 -25 -4 -25 -10 0 -5 -9 -10 -20
-10 -11 0 -20 -5 -20 -11 0 -6 -9 -9 -20 -6 -11 3 -18 1 -15 -3 5 -8 -13 -17
-40 -21 -5 -1 -27 -13 -49 -26 -21 -14 -35 -19 -30 -11 6 10 4 10 -9 -1 -26
-21 -135 -70 -141 -64 -3 4 -6 1 -6 -5 0 -7 -6 -11 -12 -10 -7 2 -12 -2 -11
-8 1 -6 -5 -11 -13 -12 -7 -1 -21 -3 -29 -4 -8 -1 -15 -5 -15 -10 0 -5 -5 -6
-12 -2 -6 4 -17 -1 -25 -11 -7 -11 -13 -15 -13 -11 0 5 -7 3 -15 -4 -8 -7 -15
-9 -15 -4 0 4 -7 -1 -15 -12 -11 -14 -14 -15 -15 -4 0 9 -3 11 -8 5 -4 -5 -16
-17 -26 -25 -18 -13 -19 -13 -12 0 4 9 2 8 -7 -2 -8 -10 -17 -15 -20 -11 -4 3
-7 1 -7 -5 0 -6 -9 -9 -20 -7 -11 2 -18 0 -15 -6 6 -8 -8 -13 -27 -10 -5 0 -8
-4 -8 -10 0 -5 -4 -8 -9 -4 -5 3 -12 1 -16 -5 -4 -6 -11 -8 -16 -5 -5 4 -9 2
-9 -4 0 -8 -24 -20 -50 -26 -3 -1 -36 -17 -75 -35 -38 -19 -73 -33 -77 -32 -5
1 -8 -3 -8 -8 0 -5 -3 -9 -7 -8 -5 1 -22 -5 -39 -15 -17 -9 -34 -13 -38 -10
-3 4 -6 2 -6 -4 0 -10 -36 -26 -53 -24 -4 1 -10 -6 -13 -14 -3 -8 -10 -13 -14
-10 -5 3 -25 -4 -44 -16 -20 -11 -36 -18 -36 -13 0 4 -9 -1 -19 -10 -11 -10
-25 -19 -33 -20 -36 -8 -78 -29 -78 -39 0 -8 -3 -7 -9 1 -7 11 -9 10 -15 -3
-3 -9 -10 -13 -16 -10 -5 3 -10 1 -10 -4 0 -6 -3 -10 -7 -9 -5 1 -18 -3 -30
-10 -13 -7 -23 -9 -23 -5 0 4 -4 3 -8 -2 -8 -11 -58 -37 -81 -41 -8 -1 -17 -7
-20 -12 -3 -5 -14 -8 -24 -6 -9 1 -15 -2 -11 -7 3 -5 -2 -9 -10 -9 -9 0 -16
-6 -16 -12 0 -10 -2 -10 -9 0 -7 11 -9 10 -15 -3 -3 -9 -10 -14 -14 -11 -5 3
-19 -4 -30 -15 -14 -13 -22 -15 -22 -7 0 9 -3 9 -10 -2 -5 -8 -10 -11 -10 -6
0 6 -7 1 -16 -10 -8 -10 -12 -13 -9 -5 5 9 -1 8 -19 -4 -14 -10 -26 -14 -26
-10 0 3 -7 -1 -16 -9 -8 -9 -19 -14 -24 -11 -5 3 -10 0 -12 -6 -2 -7 -14 -13
-26 -14 -12 -1 -29 -10 -38 -21 -8 -10 -13 -12 -9 -4 4 10 2 9 -8 -2 -8 -10
-17 -15 -20 -12 -3 3 -23 -3 -44 -15 -58 -31 -197 -95 -205 -93 -3 1 -12 -5
-18 -13 -7 -8 -21 -15 -31 -15 -10 0 -21 -5 -24 -10 -4 -6 -11 -8 -16 -5 -5 4
-12 0 -15 -9 -3 -8 -12 -12 -20 -9 -8 3 -14 0 -14 -7 0 -6 -4 -9 -9 -6 -5 3
-14 0 -20 -8 -7 -8 -27 -17 -46 -20 -19 -4 -35 -11 -35 -16 0 -4 -13 -11 -29
-15 -16 -3 -35 -13 -42 -21 -6 -8 -22 -14 -36 -14 -13 0 -26 -7 -29 -15 -4 -8
-10 -15 -16 -15 -5 0 -6 6 -2 13 4 6 -2 4 -13 -5 -11 -10 -25 -18 -31 -18 -7
0 -12 -4 -12 -10 0 -5 5 -10 11 -10 5 0 7 -4 4 -10 -3 -5 1 -10 10 -10 8 0 18
-7 21 -15 4 -8 10 -12 15 -9 5 3 9 -2 9 -11 0 -9 5 -13 10 -10 6 3 10 1 10 -4
0 -6 5 -11 11 -11 6 0 31 -14 56 -32 26 -17 52 -31 59 -31 7 0 11 -4 8 -8 -2
-4 5 -13 18 -20 21 -11 34 -21 62 -46 8 -7 16 -9 20 -6 3 4 6 1 6 -5 0 -7 7
-12 15 -12 7 0 18 -8 24 -17 5 -10 13 -15 17 -11 4 4 17 -4 30 -17 13 -14 26
-25 29 -25 4 0 21 -11 39 -25 18 -14 38 -25 44 -25 7 0 12 -4 12 -10 0 -5 5
-10 10 -10 12 0 32 -15 58 -42 9 -10 22 -18 29 -18 7 0 13 -4 13 -8 0 -5 18
-17 39 -27 22 -10 42 -24 45 -31 3 -8 15 -14 26 -14 12 0 18 -4 15 -10 -3 -5
-2 -10 4 -10 5 0 23 -12 40 -26 17 -14 31 -23 31 -19 0 3 10 -3 22 -14 11 -11
24 -18 28 -16 5 3 10 -2 14 -10 3 -8 12 -15 21 -15 8 0 15 -4 15 -10 0 -5 7
-10 16 -10 8 0 13 -4 10 -8 -2 -4 8 -13 23 -20 15 -7 37 -21 50 -33 12 -12 25
-19 27 -16 3 3 19 -8 36 -24 17 -15 34 -26 38 -24 3 2 13 -5 20 -16 8 -10 20
-19 27 -19 7 0 13 -4 13 -8 0 -5 18 -17 39 -27 22 -10 42 -24 45 -31 3 -8 12
-14 21 -14 8 0 15 -4 15 -8 0 -4 22 -21 50 -37 27 -17 50 -34 50 -38 0 -5 5
-5 10 -2 6 3 10 1 10 -4 0 -6 6 -11 13 -11 7 0 20 -8 29 -17 24 -26 48 -45 48
-38 0 3 10 -3 22 -15 12 -11 28 -20 35 -20 7 0 13 -5 13 -11 0 -5 5 -7 10 -4
6 3 10 3 10 -2 0 -11 72 -59 83 -55 5 1 6 -1 3 -6 -3 -5 7 -15 22 -23 15 -8
29 -17 32 -20 9 -11 55 -33 63 -31 5 1 6 -1 4 -5 -3 -5 1 -14 9 -21 8 -7 14
-8 14 -2 0 5 14 -4 30 -22 17 -17 30 -27 30 -22 0 5 7 0 16 -11 8 -11 16 -18
17 -16 4 6 77 -41 77 -50 0 -5 6 -8 13 -6 6 1 11 -4 9 -11 -1 -8 2 -11 7 -8 5
4 16 -1 24 -9 9 -8 20 -15 26 -15 5 0 15 -8 20 -17 6 -10 11 -14 11 -10 0 7
55 -27 70 -43 3 -3 17 -11 32 -19 15 -8 25 -17 23 -21 -2 -4 11 -13 30 -20 19
-8 35 -17 35 -22 0 -4 7 -8 15 -8 7 0 19 -8 24 -17 6 -10 11 -14 11 -9 0 5 8
-1 19 -12 10 -12 21 -19 25 -15 3 3 6 2 6 -4 0 -5 23 -22 50 -37 27 -15 50
-31 50 -37 0 -5 6 -9 13 -9 7 0 23 -9 35 -20 12 -11 26 -20 32 -20 5 0 10 -4
10 -10 0 -5 7 -10 15 -10 8 0 15 -4 15 -10 0 -5 7 -10 15 -10 8 0 15 -5 15
-11 0 -5 4 -8 8 -5 5 3 16 -3 25 -12 24 -26 47 -44 47 -37 0 4 7 0 15 -8 8 -8
31 -25 52 -38 21 -13 40 -25 43 -28 3 -4 17 -12 33 -20 15 -8 27 -18 27 -23 0
-5 5 -6 10 -3 6 3 10 -1 10 -10 0 -9 4 -14 8 -11 5 3 18 -4 30 -14 12 -11 26
-20 32 -20 5 0 10 -4 10 -10 0 -5 3 -9 8 -8 13 5 52 -28 44 -37 -4 -5 -1 -5 5
-1 7 4 24 -4 40 -18 15 -14 30 -23 34 -21 4 3 12 -2 19 -10 7 -8 17 -15 22
-15 12 0 102 -61 106 -72 2 -4 8 -6 13 -2 5 3 9 0 9 -6 0 -6 5 -8 10 -5 6 3
10 1 10 -4 0 -6 7 -11 15 -11 9 0 18 -7 21 -15 4 -8 9 -13 13 -10 4 2 14 -5
21 -16 8 -10 19 -19 26 -19 6 0 19 -9 29 -20 10 -11 23 -20 30 -20 6 0 20 -8
31 -17 11 -10 33 -25 49 -34 17 -9 29 -21 28 -27 -2 -7 0 -11 5 -10 15 4 52
-14 47 -23 -4 -5 3 -9 14 -9 12 0 21 -4 21 -10 0 -5 7 -10 15 -10 8 0 15 -4
15 -10 0 -5 7 -10 15 -10 7 0 19 -8 24 -17 6 -10 11 -14 11 -10 0 5 7 1 16 -8
24 -23 127 -88 141 -88 7 0 10 -3 8 -7 -2 -4 7 -13 20 -20 14 -7 25 -17 25
-22 0 -4 7 -8 15 -8 9 0 18 -7 21 -15 4 -8 14 -15 23 -15 22 0 45 -42 38 -69
-3 -12 0 -21 6 -21 8 0 8 -3 2 -8 -5 -4 -10 -20 -10 -37 0 -16 5 -33 10 -37 7
-5 7 -8 0 -8 -5 0 -10 -16 -10 -35 0 -19 5 -35 10 -35 7 0 7 -3 0 -8 -5 -4
-10 -16 -10 -27 0 -11 5 -23 10 -27 7 -5 7 -8 0 -8 -11 0 -12 -61 -1 -78 4 -7
4 -12 -1 -12 -10 0 -9 -92 1 -108 4 -7 3 -12 -1 -12 -5 0 -8 -12 -7 -27 1 -16
3 -28 4 -28 1 0 3 -10 4 -22 2 -13 -1 -23 -5 -23 -10 0 -6 -34 6 -42 6 -5 6
-8 -2 -8 -6 0 -9 -9 -5 -22 4 -16 2 -19 -9 -14 -8 4 -5 0 5 -8 13 -10 15 -16
7 -16 -11 0 -11 -3 -1 -15 7 -8 8 -15 3 -15 -5 0 -8 -12 -7 -27 1 -16 3 -28 4
-28 1 0 3 -10 4 -22 2 -13 -1 -23 -5 -23 -10 0 -6 -34 6 -42 7 -5 7 -8 0 -8
-11 0 -12 -61 -1 -78 4 -7 3 -12 -1 -12 -5 0 -8 -12 -7 -27 1 -16 3 -28 4 -28
1 0 3 -10 4 -22 2 -13 0 -23 -3 -23 -8 0 -5 -115 3 -129 4 -6 3 -11 -1 -11 -5
0 -8 -12 -7 -27 1 -16 3 -28 4 -28 1 0 3 -10 4 -22 2 -13 -1 -23 -5 -23 -10 0
-6 -34 6 -42 6 -5 6 -8 -2 -8 -6 0 -9 -9 -5 -22 4 -16 2 -19 -9 -14 -8 4 -5 0
5 -8 13 -10 15 -16 7 -16 -11 0 -11 -3 -1 -15 7 -8 8 -15 3 -15 -13 0 -11 -43
2 -52 6 -4 1 -8 -10 -8 -15 0 -17 -2 -6 -9 8 -5 11 -16 8 -24 -3 -8 0 -20 6
-26 6 -6 7 -11 2 -11 -11 0 -11 -82 -1 -99 4 -6 3 -11 -1 -11 -5 0 -8 -12 -7
-27 1 -16 3 -28 4 -28 1 0 3 -10 4 -22 2 -13 -1 -23 -5 -23 -10 0 -6 -34 6
-42 7 -5 7 -8 0 -8 -11 0 -12 -61 -1 -78 4 -7 3 -12 -1 -12 -5 0 -8 -12 -7
-27 1 -16 3 -28 4 -28 1 0 3 -10 4 -22 2 -13 -1 -23 -5 -23 -10 0 -6 -34 6
-42 7 -5 7 -8 0 -8 -11 0 -12 -61 -1 -78 4 -7 3 -12 -1 -12 -5 0 -8 -12 -7
-27 1 -16 3 -28 4 -28 1 0 3 -10 4 -22 2 -13 -1 -23 -5 -23 -10 0 -6 -34 6
-42 6 -5 6 -8 -2 -8 -6 0 -9 -9 -6 -20 3 -13 0 -20 -8 -21 -8 0 -5 -4 6 -9 11
-5 14 -9 6 -9 -11 -1 -11 -4 -1 -16 7 -8 8 -15 3 -15 -5 0 -8 -12 -7 -27 1
-16 3 -28 4 -28 1 0 3 -10 4 -23 2 -12 -1 -22 -5 -22 -10 0 -6 -34 6 -42 7 -5
7 -8 0 -8 -11 0 -12 -61 -1 -78 4 -7 3 -12 -1 -12 -5 0 -8 -12 -7 -27 1 -16 3
-28 4 -28 1 0 3 -10 4 -22 2 -13 -1 -23 -5 -23 -10 0 -6 -34 6 -42 7 -5 7 -8
0 -8 -11 0 -12 -61 -1 -78 4 -7 3 -12 -1 -12 -5 0 -8 -12 -7 -27 1 -16 3 -28
4 -28 1 0 3 -10 4 -23 2 -12 -1 -22 -5 -22 -10 0 -6 -34 6 -42 6 -5 6 -8 -2
-8 -6 0 -9 -9 -5 -22 4 -16 2 -19 -9 -14 -8 4 -5 0 5 -8 13 -10 15 -16 7 -16
-11 0 -11 -3 -1 -15 7 -8 8 -15 3 -15 -5 0 -8 -12 -7 -27 1 -16 3 -28 4 -28 1
0 3 -10 4 -22 2 -13 -1 -23 -5 -23 -10 0 -6 -34 6 -42 6 -5 6 -8 -2 -8 -6 0
-9 -9 -5 -22 4 -16 2 -19 -9 -14 -8 4 -5 0 5 -8 13 -10 15 -16 7 -16 -11 0
-11 -3 -1 -15 7 -8 8 -15 3 -15 -5 0 -8 -12 -7 -27 1 -16 3 -28 4 -28 1 0 3
-10 4 -22 2 -13 -1 -23 -5 -23 -10 0 -6 -34 6 -42 6 -5 6 -8 -2 -8 -6 0 -9 -9
-6 -20 3 -13 0 -20 -8 -21 -8 0 -5 -4 6 -9 11 -5 14 -9 6 -9 -11 -1 -11 -4 -1
-16 7 -8 8 -15 3 -15 -13 0 -11 -43 2 -52 6 -5 6 -8 -1 -8 -12 0 -12 -29 0
-48 4 -7 2 -12 -4 -12 -7 0 -9 -7 -6 -16 3 -8 2 -12 -4 -9 -6 3 -10 13 -10 20
0 9 -6 12 -17 8 -11 -4 -14 -3 -9 5 4 7 1 12 -8 12 -9 0 -16 5 -16 10 0 6 -7
10 -15 10 -8 0 -15 5 -15 11 0 5 -4 7 -10 4 -5 -3 -10 -2 -10 4 0 5 -9 13 -20
16 -11 4 -17 11 -14 17 4 6 2 8 -3 5 -6 -4 -20 1 -31 11 -11 10 -37 27 -56 37
-20 11 -36 23 -36 27 0 5 -7 8 -15 8 -8 0 -15 5 -15 10 0 6 -6 10 -13 10 -7 0
-25 11 -40 25 -15 14 -27 23 -27 20 0 -3 -10 3 -22 15 -12 11 -26 20 -30 20
-5 0 -18 9 -30 20 -12 11 -28 20 -35 20 -8 0 -11 4 -8 10 3 6 -1 10 -9 10 -9
0 -16 4 -16 8 0 10 -50 37 -62 34 -5 -1 -8 5 -8 13 0 8 -3 14 -7 13 -13 -3
-63 25 -63 34 0 5 -4 7 -8 4 -5 -3 -14 4 -22 14 -8 10 -17 17 -22 14 -4 -3 -8
2 -8 11 0 9 -4 14 -9 10 -6 -3 -14 3 -20 12 -6 10 -11 14 -11 10 0 -5 -13 1
-29 12 -15 11 -31 18 -34 15 -3 -3 -8 4 -12 15 -3 12 -10 19 -15 16 -5 -3 -15
3 -21 14 -7 11 -19 17 -27 13 -10 -3 -13 -1 -8 6 4 7 2 12 -4 12 -13 0 -164
99 -168 111 -2 5 -9 9 -16 9 -7 0 -21 9 -31 20 -10 11 -21 17 -25 15 -4 -3
-16 6 -26 20 -10 13 -22 21 -26 19 -5 -3 -17 5 -28 18 -11 13 -19 19 -20 15 0
-4 -10 2 -22 13 -13 12 -42 31 -65 42 -24 12 -43 25 -43 30 0 4 -6 8 -12 8 -7
0 -24 12 -37 25 -12 14 -27 23 -31 20 -4 -3 -10 2 -14 10 -3 8 -12 15 -19 15
-8 0 -25 10 -39 22 -14 13 -36 30 -48 38 -13 8 -32 23 -42 33 -10 9 -18 15
-18 12 0 -5 -49 24 -60 35 -3 3 -17 11 -32 19 -15 8 -24 19 -21 25 3 6 3 8 -1
4 -7 -5 -162 93 -176 111 -3 4 -23 18 -45 31 -22 13 -42 26 -45 30 -3 3 -22
14 -42 25 -21 11 -38 24 -38 29 0 5 -3 6 -6 3 -4 -4 -15 3 -25 14 -9 11 -20
20 -23 20 -19 -2 -27 0 -22 7 2 4 -5 9 -17 9 -12 1 -23 7 -25 13 -2 5 -15 10
-28 10 -14 0 -23 -4 -20 -9 3 -5 -1 -12 -10 -15 -8 -3 -12 -10 -9 -16 3 -6 -1
-13 -9 -16 -9 -3 -14 -10 -11 -14 3 -5 -3 -16 -12 -26 -10 -10 -18 -22 -18
-28 -1 -6 -6 -10 -13 -9 -6 2 -9 -3 -6 -11 3 -7 -2 -19 -11 -26 -8 -7 -15 -18
-15 -24 0 -7 -13 -27 -30 -46 -16 -18 -27 -37 -24 -41 3 -5 0 -9 -5 -9 -6 0
-11 -9 -11 -21 0 -11 -4 -17 -10 -14 -5 3 -10 1 -10 -4 0 -6 0 -13 0 -16 0 -3
-9 -14 -20 -25 -12 -12 -18 -25 -15 -30 4 -6 -2 -10 -11 -10 -10 0 -14 -3 -11
-6 4 -4 -2 -19 -13 -34 -11 -15 -17 -30 -13 -34 3 -3 1 -6 -5 -6 -6 0 -19 -16
-28 -35 -9 -19 -21 -35 -26 -35 -5 0 -7 -4 -4 -9 3 -5 -1 -12 -10 -15 -9 -4
-14 -9 -11 -13 4 -3 -1 -12 -11 -20 -9 -8 -11 -12 -4 -8 19 10 14 -2 -17 -37
-16 -18 -29 -35 -29 -38 -2 -20 -16 -39 -25 -33 -6 4 -8 0 -4 -10 3 -10 3 -17
-2 -17 -4 0 -14 -12 -22 -27 -16 -32 -52 -89 -74 -118 -8 -10 -15 -25 -15 -32
0 -7 -4 -13 -10 -13 -5 0 -10 -7 -10 -15 0 -9 -7 -18 -15 -21 -8 -4 -13 -10
-10 -14 3 -5 -1 -15 -9 -23 -8 -8 -12 -17 -9 -21 3 -3 -2 -8 -11 -12 -9 -3
-16 -12 -16 -19 0 -7 -7 -18 -15 -25 -9 -7 -14 -19 -11 -27 3 -8 2 -12 -3 -9
-8 5 -13 -1 -22 -29 -1 -5 -7 -15 -13 -21 -31 -33 -42 -51 -38 -63 3 -8 0 -11
-7 -7 -6 4 -11 1 -11 -9 0 -15 -6 -25 -37 -59 -7 -8 -10 -16 -7 -18 2 -3 -2
-11 -11 -18 -8 -7 -15 -19 -15 -26 0 -8 -4 -14 -10 -14 -5 0 -10 -7 -10 -15 0
-8 -4 -15 -10 -15 -5 0 -10 -5 -10 -11 0 -6 -13 -30 -30 -54 -16 -24 -30 -46
-30 -50 0 -4 -7 -13 -15 -22 -8 -8 -13 -19 -10 -24 4 -5 2 -9 -3 -9 -11 0 -68
-91 -64 -102 1 -5 -6 -8 -15 -8 -15 0 -16 -2 -3 -10 10 -6 11 -10 3 -10 -13 0
-49 -59 -45 -72 1 -5 -3 -8 -8 -8 -6 0 -15 -11 -20 -25 -5 -14 -14 -25 -21
-25 -6 0 -9 -6 -6 -12 2 -7 -5 -21 -16 -30 -11 -10 -16 -18 -11 -18 5 0 0 -7
-10 -15 -11 -8 -17 -17 -14 -21 3 -3 -5 -17 -18 -31 -14 -15 -22 -33 -19 -40
2 -8 0 -11 -5 -8 -6 4 -15 -7 -21 -24 -6 -17 -15 -31 -20 -31 -5 0 -9 -5 -9
-11 0 -7 -8 -18 -17 -26 -10 -8 -12 -11 -5 -8 11 6 11 3 0 -14 -7 -12 -15 -21
-19 -21 -3 0 -18 -25 -34 -54 -16 -30 -33 -52 -38 -49 -6 4 -7 1 -2 -7 5 -8 2
-18 -9 -26 -10 -7 -16 -15 -15 -19 2 -8 -62 -109 -73 -113 -5 -2 -6 -8 -2 -13
3 -5 0 -9 -6 -9 -6 0 -9 -4 -6 -9 3 -5 -1 -12 -10 -15 -8 -3 -12 -10 -9 -16 3
-5 2 -10 -3 -10 -5 0 -17 -18 -28 -40 -10 -22 -22 -40 -26 -40 -5 0 -8 -7 -8
-15 0 -8 -4 -15 -10 -15 -5 0 -10 -7 -10 -15 0 -8 -4 -15 -10 -15 -5 0 -10 -7
-10 -15 0 -8 -4 -15 -9 -15 -5 0 -11 -10 -13 -22 -2 -13 -9 -22 -15 -21 -7 2
-10 -4 -7 -12 4 -8 1 -15 -5 -15 -6 0 -11 -7 -11 -15 0 -8 -4 -15 -10 -15 -5
0 -10 -7 -10 -15 0 -8 -5 -15 -11 -15 -5 0 -8 -4 -5 -9 3 -5 -1 -14 -9 -21 -8
-7 -15 -19 -15 -27 0 -7 -7 -16 -15 -19 -8 -4 -12 -10 -9 -15 3 -5 0 -9 -6 -9
-6 0 -9 -4 -6 -9 3 -5 -1 -12 -10 -15 -8 -3 -12 -10 -9 -16 3 -5 2 -10 -3 -10
-5 0 -13 -8 -16 -18 -13 -32 -31 -62 -38 -62 -5 0 -8 -7 -8 -15 0 -8 -5 -15
-11 -15 -6 0 -9 -7 -5 -15 3 -8 0 -14 -7 -12 -7 1 -11 -4 -9 -10 1 -7 -3 -13
-9 -13 -5 0 -7 -4 -4 -10 3 -5 1 -10 -4 -10 -6 0 -11 -4 -11 -10 0 -5 -7 -18
-15 -27 -8 -10 -15 -22 -14 -27 0 -5 -4 -12 -9 -15 -13 -9 -67 -95 -64 -103 1
-5 -3 -8 -9 -8 -5 0 -8 -4 -5 -9 3 -5 -1 -12 -10 -15 -8 -3 -12 -10 -9 -16 3
-5 -1 -10 -9 -10 -9 0 -13 -6 -10 -13 2 -7 -4 -21 -14 -30 -18 -17 -19 -16
-12 28 4 25 3 48 -2 51 -4 3 -3 14 2 25 8 14 7 19 -2 20 -11 0 -11 2 0 6 10 4
10 8 1 19 -6 8 -7 14 -2 14 7 0 8 15 3 40 -4 22 -5 40 -1 40 7 0 5 114 -3 135
-3 8 -2 15 2 15 8 0 6 209 -2 217 -3 3 -3 10 0 15 8 12 7 225 -1 238 -3 5 -3
10 2 10 9 0 8 203 -1 226 -3 8 -2 14 2 14 8 0 6 209 -2 217 -3 3 -3 10 0 14 7
12 7 300 0 306 -3 3 -3 10 0 15 8 12 7 215 -1 228 -3 5 -2 10 3 10 4 0 6 23 2
50 -4 28 -4 50 -1 50 8 0 5 116 -3 128 -4 6 -2 13 2 16 5 3 6 26 2 51 -4 25
-4 45 -1 45 8 0 5 115 -3 135 -3 8 -2 15 3 15 4 0 5 20 1 45 -4 25 -4 45 -1
45 8 0 5 115 -3 128 -4 6 -2 13 2 16 5 3 6 26 2 51 -4 25 -4 45 -1 45 7 0 5
200 -3 207 -3 3 -3 10 0 15 7 11 7 218 0 225 -3 3 -3 10 0 15 8 12 7 215 -1
228 -3 5 -3 10 2 10 9 0 8 213 -1 236 -3 8 -2 14 2 14 9 0 6 205 -3 220 -3 5
-3 10 2 10 9 0 7 295 -2 310 -3 6 -3 10 2 10 8 0 9 107 1 115 -2 3 -2 28 2 55
4 28 3 53 -2 56 -5 3 -6 10 -2 15 7 12 7 216 0 228 -4 5 -2 12 2 15 5 3 6 26
2 51 -4 25 -4 45 -1 45 8 0 5 115 -3 135 -3 8 -2 15 2 15 8 0 6 205 -2 219 -4
5 -2 12 2 15 5 3 6 26 2 51 -4 25 -4 45 -1 45 8 0 5 115 -3 128 -4 6 -2 13 2
16 5 3 6 26 2 51 -4 25 -4 45 -1 45 8 0 5 115 -3 128 -4 6 -2 13 2 16 5 3 6
26 2 51 -4 25 -4 45 -1 45 8 0 5 115 -3 128 -4 6 -2 13 2 16 5 3 6 26 2 51 -4
25 -4 45 0 45 8 0 5 44 -5 59 -3 6 -3 11 2 11 9 0 8 208 -1 217 -3 3 -3 10 0
15 8 12 7 225 -1 238 -3 5 -3 10 2 10 12 0 10 124 -2 132 -6 5 -5 8 3 8 10 0
10 5 2 20 -6 11 -7 20 -1 20 5 0 6 14 1 35 -4 19 -4 35 0 35 11 0 7 33 -5 42
-6 5 -5 8 4 8 10 0 11 3 2 14 -7 9 -8 17 -3 20 6 3 7 20 2 41 -4 19 -5 35 -1
35 8 0 6 64 -3 78 -4 7 -1 12 6 12 9 0 9 3 -2 10 -13 9 -13 10 0 10 13 0 13 1
0 10 -12 8 -12 10 -1 10 11 0 11 3 1 15 -7 9 -8 15 -2 15 12 0 10 33 -3 42 -6
5 -5 8 4 8 11 0 11 3 1 15 -7 8 -8 15 -3 15 7 0 8 15 3 40 -4 22 -5 40 -1 40
8 0 5 119 -3 127 -3 3 -3 10 0 15 7 11 7 218 0 225 -3 3 -3 10 0 15 8 12 7
225 -1 238 -3 5 -3 10 2 10 9 0 8 204 -2 220 -3 5 -3 10 2 10 9 0 8 219 -1
227 -3 3 -3 10 0 15 8 12 7 245 -1 258 -3 5 0 10 7 10 9 0 9 3 -2 10 -13 9
-13 10 0 10 13 0 13 1 0 10 -12 8 -12 10 -1 10 10 0 11 3 2 13 -6 8 -7 17 -3
21 10 11 9 30 -3 38 -6 5 -5 8 4 8 11 0 11 3 1 15 -7 8 -9 15 -4 15 10 0 9
143 -1 159 -3 6 0 11 7 11 9 0 9 3 -2 10 -13 9 -13 10 0 10 13 0 13 1 0 10
-11 7 -11 10 -2 10 10 0 10 5 2 20 -7 14 -7 20 0 20 12 0 9 22 -5 32 -6 5 -5
8 4 8 11 0 11 3 1 15 -7 8 -8 15 -3 15 7 0 8 15 3 40 -4 22 -4 40 0 40 9 0 6
32 -4 48 -4 6 -4 12 1 12 9 0 8 215 -2 230 -3 5 -3 10 2 10 9 0 8 215 -2 230
-3 5 -2 10 3 10 4 0 6 23 2 50 -4 28 -3 50 0 50 9 0 5 44 -5 59 -3 6 -3 11 2
11 9 0 8 204 -1 219 -4 5 -2 12 3 16 7 4 7 15 1 30 -6 16 -6 25 0 25 5 0 7 7
4 15 -7 17 33 58 47 49 5 -3 9 0 9 6 0 6 5 8 10 5 6 -3 10 -1 10 4 0 6 6 11
14 11 8 0 22 7 30 16 12 12 16 12 16 2 1 -8 6 -5 16 7 8 11 18 19 22 19 12 -2
37 9 44 20 5 7 8 5 8 -4 0 -13 1 -13 10 0 9 15 13 16 46 19 8 0 13 5 10 10 -3
5 8 11 25 15 17 3 28 10 24 16 -3 5 -1 10 4 10 6 0 11 -6 11 -12 1 -8 6 -6 14
5 8 10 20 16 27 15 8 -2 13 2 12 8 -1 6 3 11 10 12 7 1 23 3 36 5 14 2 27 9
29 15 2 7 8 10 13 6 5 -3 9 0 9 6 0 6 5 8 10 5 6 -3 10 -2 10 2 0 5 29 20 64
33 36 13 62 28 59 33 -4 6 -1 7 6 3 7 -5 19 0 27 10 9 11 12 12 8 4 -5 -12 -4
-12 6 -3 7 6 19 9 28 6 9 -4 13 -2 9 4 -8 12 50 36 64 27 5 -3 8 0 7 8 -2 7 3
12 10 11 6 -2 12 2 12 8 0 5 5 7 10 4 6 -3 10 -2 10 4 0 5 12 8 28 5 20 -3 23
-2 12 6 -8 5 -12 10 -7 11 4 1 10 2 15 4 52 14 61 19 55 28 -4 6 -1 7 7 2 8
-5 18 -1 27 10 7 11 13 13 13 7 0 -20 20 -13 30 11 5 12 9 16 9 8 1 -11 5 -10
17 5 8 10 13 14 10 8 -3 -6 1 -11 9 -11 8 0 13 3 12 6 -1 3 3 8 8 9 6 2 19 9
30 15 11 6 23 10 28 9 4 -1 7 2 7 7 0 5 7 12 16 15 10 4 13 2 9 -7 -4 -6 0 -4
8 5 8 10 17 15 20 11 4 -3 7 -1 7 6 0 8 7 11 15 7 8 -3 15 -1 15 4 0 9 39 26
53 22 4 -1 7 3 7 9 0 5 5 7 10 4 6 -3 10 -1 10 6 0 7 3 9 7 6 3 -4 15 1 26 10
15 13 19 14 13 3 -4 -8 -1 -7 7 3 11 14 16 15 20 5 4 -9 6 -7 6 4 1 11 6 15
16 12 8 -4 15 -2 15 4 0 6 14 13 30 17 17 4 30 11 30 16 0 5 3 8 8 7 13 -4 52
13 52 23 0 5 6 9 13 7 6 -1 32 8 56 20 25 12 51 22 58 22 7 0 13 5 13 10 0 6
9 10 21 10 11 0 17 4 14 10 -3 6 1 7 9 4 9 -3 16 -1 16 6 0 6 4 9 9 5 5 -3 16
2 24 10 19 18 31 20 21 3 -5 -9 -3 -9 9 1 9 7 14 17 11 22 -3 5 3 6 12 2 10
-3 15 -2 12 3 -4 5 6 10 20 11 15 0 28 6 30 12 2 6 8 11 13 11 6 0 7 -6 4 -12
-4 -7 -1 -6 7 2 18 21 107 62 118 55 6 -4 7 1 3 11 -4 11 -3 15 4 11 16 -10
44 3 36 16 -3 6 -1 7 5 3 6 -4 22 -1 34 6 13 6 30 13 38 14 8 2 16 7 18 13 2
5 9 8 16 5 8 -3 16 2 19 10 4 9 11 16 17 16 6 0 8 -6 5 -12 -4 -7 0 -5 8 5 8
9 20 17 28 17 8 0 23 7 33 15 11 8 27 15 37 15 9 0 22 7 29 15 7 8 16 12 21
10 4 -3 16 2 26 12 10 10 24 18 31 19 29 2 33 5 27 14 -9 14 8 12 24 -2 9 -9
12 -9 7 -1 -3 7 2 14 14 18 11 3 20 10 20 15 0 5 7 7 15 4 8 -4 15 -1 15 6 0
6 4 9 9 5 5 -3 17 2 25 11 9 8 16 12 16 8 0 -3 6 -1 13 5 8 6 17 8 20 4 4 -3
7 -1 7 5 0 7 3 12 8 11 16 -2 51 14 47 21 -3 5 6 7 19 6 14 -2 24 1 23 7 -1 5
9 11 23 13 13 3 27 8 30 13 4 7 36 21 63 27 4 1 10 3 15 4 4 1 11 2 16 1 5 -1
6 5 3 13 -4 10 0 14 14 11 11 -2 22 2 26 10 3 8 9 13 13 10 5 -3 25 4 44 15
20 11 36 17 36 13 0 -4 7 2 16 13 8 10 12 12 8 4 -7 -13 -6 -13 12 0 10 8 22
20 26 25 5 6 8 5 8 -3 0 -10 4 -10 16 2 14 15 29 20 37 14 2 -2 11 5 21 15 10
9 21 15 26 12 5 -3 11 -1 15 5 4 6 10 8 15 5 4 -3 11 2 14 11 3 8 10 13 15 9
5 -3 12 -1 16 5 4 6 11 8 16 5 5 -4 9 -1 9 4 0 6 3 10 8 9 15 -3 42 14 36 24
-4 6 4 5 16 -2 12 -7 20 -8 16 -2 -5 9 13 18 67 36 10 3 16 10 13 15 -3 4 2 8
12 8 35 0 43 3 36 15 -5 8 -2 9 9 5 9 -3 22 0 29 7 7 7 19 11 27 8 9 -3 11 0
6 8 -6 9 -4 11 4 6 7 -5 18 0 26 10 10 14 14 15 15 5 0 -11 5 -10 20 4 11 10
20 14 20 9 0 -5 4 -4 8 1 11 15 62 36 73 30 5 -4 9 -1 9 5 0 6 4 9 9 6 5 -4
11 -1 13 4 2 6 20 12 40 13 20 1 34 5 31 10 -4 6 32 11 40 5 2 -2 11 3 20 11
14 11 17 11 17 0 0 -12 2 -12 9 0 5 7 14 10 20 7 6 -4 11 -3 11 2 0 4 22 8 50
7 27 -1 47 1 45 5 -2 4 2 7 10 7 8 0 15 -3 15 -7z m5016 -2992 c4 -6 3 -8 -3
-5 -12 7 -12 -72 0 -90 4 -6 4 -14 -1 -17 -5 -3 -7 -21 -6 -40 2 -23 -1 -36
-9 -36 -9 0 -8 -3 1 -9 8 -4 11 -19 8 -34 -2 -15 0 -29 5 -33 6 -4 3 -14 -8
-27 -10 -11 -13 -17 -7 -14 7 4 15 0 18 -9 3 -8 2 -13 -2 -10 -4 2 -8 -18 -9
-44 0 -31 3 -47 10 -43 6 4 7 1 2 -7 -12 -19 -14 -133 -2 -147 6 -8 6 -13 0
-13 -11 0 -11 -130 0 -147 5 -8 4 -13 -2 -13 -11 0 -10 -35 1 -46 4 -3 1 -15
-5 -25 -10 -16 -9 -21 3 -29 8 -5 10 -10 5 -10 -7 0 -10 -27 -10 -70 1 -45 -2
-70 -9 -70 -6 0 -5 -4 2 -9 8 -4 11 -19 8 -34 -2 -15 -1 -29 4 -32 6 -3 4 -14
-3 -26 -10 -16 -9 -21 3 -29 8 -5 11 -10 5 -10 -5 0 -11 -20 -12 -45 0 -28 3
-43 9 -39 6 4 6 0 0 -13 -6 -11 -7 -25 -2 -33 5 -8 3 -21 -3 -32 -10 -15 -9
-21 3 -28 8 -5 10 -10 5 -10 -12 0 -14 -179 -2 -197 5 -7 4 -13 -1 -13 -10 0
-10 -130 1 -147 4 -6 3 -14 -1 -17 -5 -3 -8 -24 -6 -46 2 -26 -1 -40 -9 -40
-9 0 -8 -3 1 -9 8 -4 11 -19 8 -34 -2 -15 0 -29 5 -33 6 -4 3 -14 -8 -27 -10
-11 -13 -17 -7 -14 7 4 15 0 18 -9 3 -8 2 -13 -2 -10 -4 2 -8 -18 -9 -44 0
-30 4 -47 9 -44 6 4 7 -1 1 -12 -5 -11 -8 -32 -7 -49 1 -16 -4 -33 -10 -37 -8
-5 -7 -8 2 -8 9 0 12 -10 8 -30 -2 -16 0 -33 6 -36 5 -4 3 -13 -7 -24 -15 -17
-15 -19 2 -29 10 -6 14 -11 8 -11 -5 0 -11 -20 -12 -45 -1 -29 3 -43 10 -38 6
4 7 1 2 -7 -11 -18 -14 -140 -3 -146 5 -3 5 -11 1 -17 -11 -18 -11 -130 0
-144 6 -9 6 -13 -2 -13 -11 0 -10 -34 1 -46 4 -3 1 -15 -5 -25 -10 -16 -9 -21
3 -29 8 -5 10 -10 5 -10 -7 0 -10 -27 -10 -70 1 -45 -2 -70 -9 -70 -6 0 -5 -4
2 -9 8 -4 11 -19 8 -34 -2 -15 0 -29 5 -33 6 -4 4 -13 -6 -24 -15 -17 -15 -19
2 -29 10 -6 14 -11 8 -11 -5 0 -11 -20 -12 -45 0 -28 3 -43 9 -39 6 4 6 0 0
-13 -6 -11 -7 -25 -2 -33 5 -8 3 -21 -3 -32 -10 -15 -9 -21 3 -28 8 -5 10 -10
5 -10 -12 0 -14 -179 -2 -197 5 -7 4 -13 0 -13 -5 0 -9 -31 -9 -69 1 -39 5
-67 10 -64 5 4 6 0 0 -8 -11 -19 -13 -58 -3 -65 5 -3 3 -14 -4 -25 -10 -16 -9
-21 3 -29 8 -5 10 -10 5 -10 -7 0 -10 -27 -10 -70 1 -45 -2 -70 -9 -70 -6 0
-5 -4 2 -9 8 -4 11 -19 8 -34 -2 -15 0 -29 5 -33 6 -4 3 -14 -8 -27 -10 -11
-13 -17 -7 -14 7 4 15 0 18 -9 3 -8 2 -13 -2 -10 -4 2 -8 -18 -9 -44 0 -30 4
-47 9 -44 6 4 6 -2 0 -13 -6 -11 -7 -25 -2 -33 5 -8 3 -21 -3 -32 -10 -15 -9
-21 3 -28 8 -5 11 -10 5 -10 -5 0 -10 -25 -11 -55 -1 -31 3 -52 8 -49 5 4 4
-4 -4 -15 -11 -18 -11 -23 2 -31 8 -5 10 -10 5 -10 -7 0 -10 -27 -10 -70 1
-45 -2 -70 -9 -70 -6 0 -5 -4 2 -9 8 -4 11 -19 8 -34 -2 -15 0 -29 5 -33 6 -4
4 -13 -6 -24 -15 -17 -15 -19 2 -29 10 -6 14 -11 8 -11 -5 0 -11 -20 -12 -45
-1 -29 3 -43 10 -38 6 4 7 1 2 -7 -12 -20 -13 -134 -1 -142 8 -5 7 -8 -2 -8
-8 0 -10 -9 -6 -27 4 -22 3 -25 -5 -13 -6 8 -11 11 -11 6 0 -5 -6 -3 -13 3 -8
6 -18 7 -22 3 -5 -4 -5 -2 -1 5 5 10 -20 26 -34 21 -3 -1 -17 9 -31 22 -14 14
-35 32 -48 40 -13 8 -32 22 -42 31 -11 9 -33 22 -49 29 -17 7 -30 16 -30 20 0
4 -13 13 -30 20 -16 7 -30 16 -30 21 0 5 -11 14 -25 19 -14 5 -25 14 -25 20 0
5 -7 10 -15 10 -8 0 -15 5 -15 12 0 6 -3 8 -7 5 -3 -4 -17 3 -30 15 -13 12
-23 18 -23 13 0 -4 -8 2 -19 13 -10 12 -20 19 -23 17 -2 -3 -15 6 -28 20 -13
14 -29 25 -37 25 -7 0 -13 5 -13 10 0 6 -6 10 -13 10 -7 0 -23 9 -35 20 -12
11 -26 20 -32 20 -5 0 -10 4 -10 8 0 5 -12 15 -27 23 -16 8 -35 22 -44 31 -9
10 -19 14 -23 10 -4 -4 -12 1 -17 11 -6 9 -14 17 -20 17 -9 0 -21 8 -54 38 -8
7 -15 10 -15 6 0 -4 -8 3 -19 14 -10 12 -23 22 -30 22 -6 0 -11 5 -11 10 0 6
-9 10 -20 10 -10 0 -24 9 -30 20 -6 11 -20 20 -31 20 -11 0 -17 5 -14 10 3 6
0 10 -9 10 -8 0 -16 4 -18 9 -1 5 -10 11 -18 13 -8 2 -21 11 -28 21 -7 9 -20
17 -28 17 -8 0 -14 5 -14 10 0 6 -7 10 -15 10 -8 0 -15 4 -15 10 0 5 -6 9 -12
7 -7 -1 -12 4 -10 11 1 8 -2 11 -6 8 -5 -3 -21 4 -34 17 -26 23 -55 41 -100
65 -16 7 -28 18 -28 23 0 6 -4 8 -9 5 -5 -3 -12 1 -15 10 -3 8 -10 13 -15 10
-5 -3 -12 1 -15 10 -3 8 -10 12 -16 9 -5 -3 -10 1 -10 10 0 9 -5 15 -12 13 -7
-3 -23 6 -36 19 -13 13 -28 21 -33 18 -5 -4 -9 -1 -9 4 0 6 -7 11 -15 11 -8 0
-15 7 -15 16 0 9 -6 14 -13 11 -7 -3 -19 4 -25 14 -7 10 -17 19 -23 19 -5 0
-19 9 -31 20 -12 11 -28 20 -35 20 -7 0 -13 5 -13 10 0 6 -5 10 -10 10 -10 0
-22 8 -55 38 -8 7 -15 10 -15 5 0 -4 -4 -3 -8 2 -9 14 -75 60 -84 60 -4 0 -14
9 -23 20 -9 11 -14 13 -10 5 4 -8 -2 -5 -13 8 -11 12 -25 22 -31 22 -6 0 -11
5 -11 11 0 5 -4 8 -9 5 -5 -3 -11 1 -15 9 -3 8 -12 15 -21 15 -8 0 -15 5 -15
10 0 6 -7 10 -15 10 -9 0 -18 7 -21 15 -4 8 -12 15 -20 15 -8 0 -25 10 -40 23
-14 12 -28 21 -31 19 -2 -2 -13 7 -24 19 -10 12 -19 19 -19 15 0 -4 -10 2 -22
14 -12 11 -28 20 -35 20 -7 0 -13 5 -13 10 0 6 -7 10 -15 10 -9 0 -20 10 -25
23 -5 12 -9 16 -9 8 -1 -11 -7 -9 -21 7 -12 12 -28 22 -36 22 -8 0 -13 4 -10
9 3 4 -12 16 -33 26 -21 9 -53 30 -69 45 -17 15 -33 25 -36 22 -3 -3 -6 0 -6
6 0 7 -6 12 -13 12 -7 0 -23 9 -35 20 -12 11 -25 20 -31 20 -5 0 -11 4 -13 9
-1 5 -9 11 -17 13 -16 3 -57 40 -54 48 1 3 -8 7 -20 7 -12 1 -27 10 -34 19 -7
10 -13 15 -13 11 0 -4 -10 1 -22 13 -12 11 -28 20 -35 20 -7 0 -13 5 -13 10 0
6 -4 10 -10 10 -5 0 -19 8 -29 18 -36 32 -50 42 -59 42 -5 0 -15 7 -22 15 -7
9 -15 13 -17 11 -3 -2 -13 3 -23 12 -28 26 -42 36 -72 51 -16 8 -28 20 -28 28
0 7 -3 12 -7 11 -14 -4 -53 13 -53 23 0 5 -6 9 -14 9 -7 0 -19 7 -26 15 -7 8
-17 12 -23 8 -5 -3 -8 -2 -5 3 3 5 0 15 -8 22 -8 7 -14 9 -14 5 0 -4 -6 0 -13
9 -8 9 -20 18 -27 20 -14 3 -29 13 -55 36 -7 6 -17 12 -22 12 -4 0 -20 11 -35
25 -15 14 -32 25 -38 25 -5 0 -10 5 -10 10 0 6 -7 10 -15 10 -8 0 -15 5 -15
10 0 6 -5 10 -10 10 -16 0 -90 51 -90 62 0 5 5 6 10 3 6 -3 10 -2 10 4 0 5 9
8 20 6 11 -2 20 0 20 5 0 5 14 15 30 24 19 9 28 10 23 3 -5 -8 -2 -8 9 0 8 7
19 9 23 5 5 -4 5 -2 1 5 -6 11 30 39 44 35 9 -3 45 11 50 19 3 5 17 10 30 13
14 2 24 9 23 15 -2 5 3 8 11 5 8 -3 17 0 21 5 3 6 11 9 16 6 5 -4 9 -1 9 5 0
7 6 10 14 7 8 -3 17 1 20 9 3 8 9 13 13 13 16 -4 73 23 73 34 0 7 5 5 10 -3 6
-9 10 -10 10 -3 0 12 54 43 77 43 7 0 13 4 13 8 0 4 10 9 22 9 13 1 28 9 34
18 13 18 28 20 19 3 -4 -7 0 -5 8 4 8 10 17 15 20 11 4 -3 7 0 7 7 0 7 3 11 6
7 4 -3 27 5 52 18 25 13 49 22 54 19 5 -3 8 -2 7 3 -3 19 2 25 14 15 10 -8 19
-6 38 11 14 12 31 23 39 25 8 2 21 9 29 15 8 7 22 11 33 9 10 -2 21 3 24 12 3
8 12 12 20 9 8 -3 14 1 14 8 0 7 3 10 6 6 4 -3 13 1 21 9 9 8 22 13 29 10 8
-3 14 -1 14 5 0 6 5 7 10 4 6 -3 10 -2 10 3 0 5 10 13 23 17 12 4 25 8 30 10
4 1 12 3 18 4 5 0 8 5 5 10 -4 5 5 8 19 7 13 -2 22 0 20 4 -3 4 3 14 12 21 12
10 14 10 9 2 -11 -19 5 -15 20 5 9 11 13 13 14 4 0 -10 4 -10 16 2 8 9 22 16
30 16 8 0 14 5 14 12 0 6 3 8 7 5 3 -4 12 -2 20 4 7 6 13 8 13 5 0 -4 6 -1 14
6 8 7 11 18 8 23 -2 6 1 4 8 -2 11 -10 18 -9 34 5 14 13 18 13 12 2 -4 -8 0
-6 8 4 9 11 16 16 16 12 0 -5 7 -3 15 4 8 7 15 9 15 4 0 -5 5 -1 11 9 6 9 14
15 20 12 5 -4 9 -1 9 4 0 6 5 11 11 11 5 0 7 -6 4 -12 -4 -7 0 -5 8 4 8 10 17
15 20 11 4 -3 7 -2 7 4 0 6 7 14 16 17 10 4 13 2 9 -7 -4 -6 0 -4 8 6 9 10 18
18 21 18 21 -3 26 0 20 11 -5 8 0 9 14 6 12 -4 20 -2 16 3 -3 5 2 9 10 9 9 0
16 5 16 11 0 6 7 9 15 5 8 -3 15 -1 15 4 0 6 7 10 15 10 9 0 18 6 21 13 2 7
14 14 26 14 12 1 25 8 29 15 5 7 9 9 9 3 0 -5 5 -2 11 8 6 9 14 15 19 12 4 -3
11 2 14 11 3 8 10 12 16 9 5 -3 10 -1 10 5 0 6 5 8 10 5 6 -3 10 -1 10 5 0 6
5 8 10 5 6 -3 10 -1 10 5 0 6 5 8 10 5 6 -3 10 -1 10 4 0 6 7 11 16 11 8 0 12
5 9 10 -3 6 1 10 9 10 8 0 25 10 37 23 12 12 18 15 14 7 -8 -13 -7 -13 11 0
10 8 26 23 36 33 12 13 17 15 21 5 4 -8 6 -7 6 5 1 9 7 17 15 17 8 0 17 7 20
16 3 8 10 12 16 9 5 -3 10 -1 10 4 0 6 7 11 15 11 8 0 15 5 15 10 0 6 7 10 15
10 8 0 19 9 25 20 6 11 16 20 22 20 7 0 25 12 41 28 17 15 27 20 22 12 -4 -8
5 -1 20 15 14 17 30 30 35 30 5 0 17 10 28 22 10 13 22 20 26 16 3 -3 6 -1 6
5 0 7 7 12 16 12 8 0 13 4 10 8 -6 10 39 53 47 46 3 -3 14 7 26 22 11 15 21
23 21 18 0 -5 5 -1 11 9 6 9 15 14 21 11 6 -4 9 -3 6 2 -3 5 4 18 15 29 11 11
16 13 12 5 -8 -13 -6 -13 8 -1 9 7 14 17 11 22 -3 5 0 9 6 9 7 0 21 11 31 24
11 14 28 28 39 31 10 3 22 15 25 26 4 10 9 17 13 15 4 -2 13 2 20 10 7 8 9 14
5 14 -4 0 4 8 20 18 15 10 25 21 21 24 -3 4 3 9 14 12 10 4 24 18 30 31 11 23
23 30 45 26 5 -1 6 2 3 7 -7 12 59 84 69 74 4 -4 5 -2 2 4 -3 6 9 25 29 42 19
17 36 35 37 39 1 4 5 7 10 5 6 -2 11 13 8 30 0 4 8 10 19 13 11 4 20 13 20 21
0 8 5 12 10 9 6 -3 10 0 10 8 0 8 7 18 16 21 9 4 14 9 11 12 -8 8 16 33 26 27
4 -2 7 2 7 9 0 7 18 33 40 57 22 24 40 47 40 52 0 5 5 9 10 9 6 0 10 7 10 15
0 8 5 14 12 13 7 -2 12 2 13 7 0 6 8 19 18 30 9 11 16 23 15 26 -2 3 10 17 26
32 16 15 25 27 21 27 -4 0 2 8 13 19 12 10 22 23 22 30 0 6 8 11 18 11 14 0
15 2 2 10 -11 7 -11 10 -2 10 7 0 10 4 7 10 -3 5 0 7 8 4 11 -4 28 22 25 39
-1 3 56 67 59 67 1 0 5 -5 9 -12z m548 -6984 c3 -8 2 -12 -4 -9 -6 3 -10 10
-10 16 0 14 7 11 14 -7z m116 -80 c0 -8 -5 -12 -10 -9 -6 4 -8 11 -5 16 9 14
15 11 15 -7z"/>
<path d="M12430 12619 c0 -5 5 -7 10 -4 6 3 10 8 10 11 0 2 -4 4 -10 4 -5 0
-10 -5 -10 -11z"/>
<path d="M15070 6721 c0 -5 7 -12 16 -15 14 -5 15 -4 4 9 -14 17 -20 19 -20 6z"/>
<path d="M15110 6689 c0 -5 -6 -7 -12 -3 -7 4 -9 3 -5 -1 13 -15 36 -14 30 1
-6 17 -13 18 -13 3z"/>
</g>
</svg>
