<svg height='100px' width='100px'  fill="#FFF668" xmlns:dc="http://purl.org/dc/elements/1.1/" xmlns:cc="http://creativecommons.org/ns#" xmlns:rdf="http://www.w3.org/1999/02/22-rdf-syntax-ns#" xmlns:svg="http://www.w3.org/2000/svg" xmlns="http://www.w3.org/2000/svg" xmlns:sodipodi="http://sodipodi.sourceforge.net/DTD/sodipodi-0.dtd" xmlns:inkscape="http://www.inkscape.org/namespaces/inkscape" viewBox="0 0 8.4666665 8.466667" version="1.1" x="0px" y="0px"><g transform="translate(0,-288.53333)"><path style="color:#000000;font-style:normal;font-variant:normal;font-weight:normal;font-stretch:normal;font-size:medium;line-height:normal;font-family:sans-serif;font-variant-ligatures:normal;font-variant-position:normal;font-variant-caps:normal;font-variant-numeric:normal;font-variant-alternates:normal;font-feature-settings:normal;text-indent:0;text-align:start;text-decoration:none;text-decoration-line:none;text-decoration-style:solid;text-decoration-color:#000000;letter-spacing:normal;word-spacing:normal;text-transform:none;writing-mode:lr-tb;direction:ltr;text-orientation:mixed;dominant-baseline:auto;baseline-shift:baseline;text-anchor:start;white-space:normal;shape-padding:0;clip-rule:nonzero;display:inline;overflow:visible;visibility:visible;opacity:1;isolation:auto;mix-blend-mode:normal;color-interpolation:sRGB;color-interpolation-filters:linearRGB;solid-color:#000000;solid-opacity:1;vector-effect:none;fill:#FFF668;fill-opacity:1;fill-rule:evenodd;stroke:none;stroke-width:2.00000024;stroke-linecap:butt;stroke-linejoin:miter;stroke-miterlimit:4;stroke-dasharray:none;stroke-dashoffset:0;stroke-opacity:1;color-rendering:auto;image-rendering:auto;shape-rendering:auto;text-rendering:auto;enable-background:accumulate" d="M 15.982422 1.9707031 A 1.0001001 1.0001001 0 0 0 15 2.9882812 L 15 6.0449219 A 1.0002461 1.0002461 0 0 0 17 6.0449219 L 17 2.9882812 A 1.0001001 1.0001001 0 0 0 15.982422 1.9707031 z M 6.7695312 5.7949219 A 1.0001001 1.0001001 0 0 0 6.0683594 7.5136719 L 8.2304688 9.6777344 A 1.0021986 1.0021986 0 1 0 9.6484375 8.2597656 L 7.484375 6.0976562 A 1.0001001 1.0001001 0 0 0 6.7695312 5.7949219 z M 25.201172 5.7949219 A 1.0001001 1.0001001 0 0 0 24.515625 6.0976562 L 22.351562 8.2597656 A 1.0021986 1.0021986 0 1 0 23.769531 9.6777344 L 25.931641 7.5136719 A 1.0001001 1.0001001 0 0 0 25.201172 5.7949219 z M 15.996094 8.9980469 C 12.141945 8.9980469 8.998045 12.149733 8.9980469 16.003906 C 8.998045 19.858042 12.141945 23.001953 15.996094 23.001953 C 19.850242 23.001953 23.001955 19.858042 23.001953 16.003906 C 23.001955 12.149733 19.850242 8.9980469 15.996094 8.9980469 z M 15.996094 10.998047 C 18.769361 10.998047 21.001954 13.23064 21.001953 16.003906 C 21.001954 18.777172 18.769361 21.001953 15.996094 21.001953 C 13.222826 21.001953 10.998046 18.777172 10.998047 16.003906 C 10.998046 13.23064 13.222826 10.998047 15.996094 10.998047 z M 2.9609375 15.029297 A 1.0002331 1.0002331 0 1 0 2.9609375 17.029297 L 6.015625 17.029297 A 1.0002331 1.0002331 0 1 0 6.015625 15.029297 L 2.9609375 15.029297 z M 25.984375 15.029297 A 1.0002331 1.0002331 0 1 0 25.984375 17.029297 L 29.041016 17.029297 A 1.0002331 1.0002331 0 1 0 29.041016 15.029297 L 25.984375 15.029297 z M 8.9179688 22.078125 A 1.0001001 1.0001001 0 0 0 8.2304688 22.380859 L 6.0683594 24.544922 A 1.0021986 1.0021986 0 0 0 7.484375 25.960938 L 9.6484375 23.798828 A 1.0001001 1.0001001 0 0 0 8.9179688 22.078125 z M 23.046875 22.078125 A 1.0001001 1.0001001 0 0 0 22.351562 23.798828 L 24.515625 25.960938 A 1.0021986 1.0021986 0 1 0 25.931641 24.544922 L 23.769531 22.380859 A 1.0001001 1.0001001 0 0 0 23.046875 22.078125 z M 15.982422 25.001953 A 1.0001001 1.0001001 0 0 0 15 26.013672 L 15 29.076172 A 1.0002461 1.0002461 0 0 0 17 29.076172 L 17 26.013672 A 1.0001001 1.0001001 0 0 0 15.982422 25.001953 z " transform="matrix(0.26458334,0,0,0.26458334,0,288.53333)"></path></g></svg>